<svg width="1584" height="804" viewBox="0 0 1584 804" fill="none" xmlns="http://www.w3.org/2000/svg">
<path fill-rule="evenodd" clip-rule="evenodd" d="M1512.93 -100V-94.1918L1564.88 -42.3449L1512.93 9.4974V61.7715L1459.09 115.5H1513.53L1513.96 115.927L1565.31 167.165V216.53L1514.39 165.711H1462.01L1410.66 114.468L1462.61 62.6259V10.3564L1513.96 -40.8906L1515.42 -42.3449L1513.96 -43.7992L1462.61 -95.0416V-100H1460.55V-94.1918L1512.5 -42.3449L1460.55 9.4974V61.7715L1409.2 113.018L1357.86 61.7715V9.4974L1306.94 -41.3178H1356.4L1408.17 10.3564V63.2258H1410.24V10.3564L1463.04 -42.3449L1410.24 -95.0416V-100H1408.17V-95.0416L1356.83 -43.7992L1356.4 -43.3766H1301.96L1355.8 10.3564V62.6259L1409.2 115.927L1461.15 167.769H1513.53L1567.37 221.502V167.165L1583.99 150.576V147.672L1566.33 165.283L1515.42 114.468L1566.33 63.653L1583.99 81.2731V78.3599L1567.37 61.7715V12.4106L1583.99 28.9991V26.0858L1565.31 7.44315V61.7715L1513.53 113.441H1464.07L1514.99 62.6259V10.3564L1566.33 -40.8906L1583.99 -23.2705V-26.1791L1566.33 -43.7992L1514.99 -95.0416V-100H1512.93ZM1358.29 -42.3429L1409.2 -93.1581L1460.13 -42.3429L1409.2 8.47683L1358.29 -42.3429ZM1360.77 -100L1356.41 -95.6461H1304.03L1252.07 -43.7992L1250.62 -42.3449L1252.07 -40.8906L1303.42 10.3564V62.6259L1408.17 167.165V219.439L1461.16 272.313H1513.54L1566.34 325.014L1584 342.63V339.717L1566.34 322.101L1514.39 270.254H1462.01L1410.24 218.589V169.228L1461.16 220.043H1513.54L1566.34 272.74L1584 290.36V287.447L1567.8 271.281L1584 255.12V252.211L1566.34 269.832L1514.39 217.985H1462.01L1410.24 166.315L1305.48 61.7715V9.49741L1253.53 -42.3449L1304.88 -93.5873H1357.26L1363.68 -100H1360.77ZM1256.01 -100L1253.1 -97.1004V-100H1251.04V-95.0416L1199.69 -43.7992L1198.23 -42.3449L1199.69 -40.8906L1251.04 10.3564V62.6259L1304.44 115.927L1355.79 167.165V219.439L1409.2 272.74L1461.15 324.587H1513.53L1566.33 377.284L1583.99 394.904V391.991L1566.33 374.371V374.375L1514.38 322.528H1462.01L1409.2 269.832L1357.85 218.589V166.315L1304.44 113.018L1253.1 61.7715V9.4974L1201.14 -42.3449L1253.1 -94.1918L1258.92 -100H1256.01ZM1198.66 -100V-95.0416L1147.32 -43.7992L1145.86 -42.3449L1147.32 -40.8906L1198.66 10.3564V62.6259L1250.62 114.468L1199.27 165.711H1146.89L1094.94 217.557V217.567L1042.57 269.832L1041.11 271.281L1042.57 272.74L1094.94 325.005V325.014L1094.95 325.01L1094.95 325.014V325.005L1147.75 272.313H1197.21L1146.29 323.133V375.402L1094.94 426.645V426.654L1093.49 428.104L1094.94 429.549V429.558L1146.29 480.796V533.07L1197.21 583.89H1147.75L1094.94 531.188V534.101L1145.86 584.917L1094.95 635.723L1044.03 584.917L991.226 532.215V479.946L937.821 426.645L936.359 428.104L989.163 480.796V533.07L1041.11 584.917L1094.94 638.631V638.641L1094.95 638.636L1094.95 638.641V638.631L1147.75 585.944H1202.18L1148.35 532.215V479.946L1096.4 428.104L1148.35 376.252V323.983L1201.15 271.281L1252.07 220.471L1304.03 272.313H1356.41L1356.83 272.74L1409.2 325.014L1461.16 376.857H1513.54L1564.88 428.104L1566.34 429.558L1584 447.169V444.26L1566.34 426.645L1514.39 374.802H1462.01L1409.2 322.101L1358.29 271.281L1305.48 218.589V166.315L1252.07 113.018L1200.73 61.7715V9.4974L1148.78 -42.3449L1200.73 -94.1918V-100H1198.66ZM1044.03 271.285L1094.95 220.474V220.465L1147.74 167.773H1200.12L1252.07 115.931L1303.42 167.169V219.443L1354.34 270.258H1304.88L1253.11 218.593V164.265L1199.26 217.988H1146.89L1094.94 269.835V272.744L1147.74 220.047H1200.12L1251.04 169.232V218.593L1199.7 269.835L1199.26 270.258H1146.89L1094.95 322.1L1044.03 271.285ZM1146.29 -100V-95.0416L1094.94 -43.7992V-43.7947L1093.49 -42.3449L1094.94 -40.8951V-40.8906L1146.29 10.3564V62.6259L1197.21 113.441H1147.75L1094.95 60.7534V60.7444L1043 8.89748H990.62L939.278 -42.3449L991.226 -94.1918V-100H989.163V-95.0416L937.821 -43.7992L885.013 8.89748H832.638L781.715 59.7127V10.3564L833.489 -41.3178H885.865L938.846 -94.1918V-100H936.787V-95.0416L885.013 -43.3766H832.638L779.652 9.4974V61.7715L727.882 113.441H678.417L729.339 62.6259V10.3564L780.681 -40.8906L833.489 -93.5873H885.865L892.29 -100H889.376L885.013 -95.6461H832.638L780.681 -43.7992L727.277 9.4974V61.7715L673.439 115.5H727.882L728.306 115.927L779.652 167.165V216.53L728.734 165.711H676.358L625.012 114.468L676.96 62.6259V10.3564L729.763 -42.3449L780.681 -93.1601L787.539 -100H784.62L780.681 -96.0733L728.306 -43.7992L727.882 -43.3766H675.502L623.55 8.47483L571.603 -43.3766L519.829 -95.0416V-100H517.766V-94.1918L568.684 -43.3766H519.228L467.449 -95.0416V-100H465.386V-94.1918L518.367 -41.3178H570.747L571.175 -40.8906L622.517 10.3564V59.7127L571.603 8.89748H519.228L466.42 -43.7992L415.073 -95.0416V-100H413.01V-94.1918L464.962 -42.3449L413.01 9.4974V61.7715L359.178 115.5H413.611L414.044 115.927L465.386 167.165V216.53L414.468 165.711H362.088L310.741 114.468L362.693 62.6259V10.3564L414.04 -40.8906H414.044L415.497 -42.3449L414.044 -43.7992H414.04L362.693 -95.0416V-100H360.63V-94.1918L412.582 -42.3449L360.63 9.4974V61.7715L309.289 113.018L257.942 61.7715V9.4974L207.02 -41.3178H256.481L308.255 10.3564V63.2258H310.318V10.3564L363.121 -42.3449L310.318 -95.0416V-100H308.255V-95.0416L256.909 -43.7992L256.481 -43.3766H202.038L255.88 10.3564V62.6259L309.289 115.927L361.236 167.769H413.611L467.449 221.502V167.165L519.228 115.5H568.684L517.766 166.315V218.589L466.42 269.832L414.468 217.985H362.088L310.318 166.315L205.562 61.7715V9.4974L153.611 -42.3449L204.957 -93.5873H257.337L263.762 -100H260.848L256.481 -95.6461H204.105L152.158 -43.7992L150.696 -42.3449L152.158 -40.8906L203.5 10.3564V62.6259L308.255 167.165V219.439L361.236 272.313H413.611L466.42 325.014L518.367 376.857H570.747L623.55 429.558L625.012 428.104L571.603 374.802H519.228L466.42 322.101L414.468 270.254H362.088L310.318 218.589V169.228L361.236 220.043H413.611L466.42 272.74L518.367 324.587H570.747L622.517 376.252L623.04 376.77L623.55 377.284L674.473 428.104L623.55 478.914L571.603 427.072H519.228L518.881 426.731L466.42 374.371V374.375L414.468 322.528H362.088L309.289 269.832L257.942 218.589V166.315L204.533 113.018H204.529L153.183 61.7715V9.4974L101.235 -42.3449L153.183 -94.1918L159.007 -100H156.093L153.183 -97.1004V-100H151.124V-95.0416L99.7779 -43.7992L98.3161 -42.3449L99.7779 -40.8906L151.124 10.3564V62.6259L204.533 115.927L255.88 167.165V219.439L309.289 272.74L361.236 324.587H413.611L466.42 377.284L518.367 429.131L570.141 480.796V533.07L622.093 584.917L570.747 636.159H518.367L467.449 686.979V637.613L519.228 585.944H573.661L519.829 532.215V479.946L466.42 426.645L414.468 374.802H362.088L309.289 322.101L258.366 271.281L205.562 218.589V166.315L152.158 113.018L100.807 61.7715V9.4974L48.8597 -42.3449L100.807 -94.1918V-100H98.7441V-95.0416L47.3979 -43.7992L45.9406 -42.3449L47.3979 -40.8906L98.7441 10.3564V62.6259L150.696 114.468L99.3498 165.711H46.9744L0 212.585L0 215.499L47.826 167.769H100.201L152.158 115.927L203.5 167.165V219.439L254.422 270.254H204.957L153.183 218.589V164.261L99.3498 217.985H46.9744L0 264.86L0 267.773L47.826 220.043H100.201L151.124 169.228V218.589L99.7779 269.832L99.3498 270.254H46.9744L0 317.129L0 320.042L47.826 272.313H97.2869L46.3687 323.133V375.402L0 421.677L0 424.586L48.4271 376.252V323.983L101.235 271.281L152.158 220.471L204.105 272.313H256.481L256.909 272.74L309.289 325.014L361.236 376.857H413.611L464.962 428.104L466.42 429.558L517.766 480.796V533.07L568.684 583.89H519.228L467.449 532.215V479.946L414.468 427.072H362.088L309.289 374.371V374.375L257.337 322.528H204.957L152.158 269.832L98.7441 323.133V375.402L45.9406 428.104L47.3979 429.558L98.7441 480.796V533.07L150.696 584.917L99.3498 636.159H46.9744L0 683.034L0 685.947L47.826 638.218H100.201L152.158 586.366L204.105 638.218H256.481L310.318 691.942V637.613L310.741 637.186L363.121 584.917L361.664 583.458L310.318 532.215V479.346H308.255V532.215L256.481 583.89H207.02L257.942 533.07V480.796L309.289 429.558L360.63 480.796V533.07L412.582 584.917L360.63 636.759V689.028L309.289 740.275L257.337 688.433H204.957L153.611 637.186L152.158 635.732L150.696 637.186L99.3498 688.433H46.3687V690.487H100.201L152.158 638.641L204.105 690.487H256.481L307.827 741.73L256.481 792.972H204.105L153.183 843.787V794.426L204.957 742.761H257.942V740.703H204.957L152.158 688.006L99.7779 740.275L99.3498 740.703H46.9744L0 787.577L0 790.491L47.826 742.761H97.2869L46.3687 793.572V845.846L22.3145 869.852C22.8246 870.315 23.3437 870.761 23.8675 871.211L48.4271 846.701V794.426L100.201 742.761L152.158 690.91L203.071 741.73L151.124 793.572V845.846L150.696 846.273L108.886 887.994H111.805L152.158 847.728L153.183 846.701L204.957 795.031H257.337L309.289 743.184L361.236 795.031H413.611L464.962 846.273L466.42 847.728L506.768 887.994H509.682L467.877 846.273L466.42 844.819L414.468 792.972H362.088L310.741 741.73L362.693 689.878V637.613L415.497 584.917L362.693 532.215V479.946L309.289 426.645L257.337 374.802H204.957L151.124 321.069V375.402L98.3161 428.104L151.124 480.796V533.67H153.183V480.796L204.957 429.131H254.422L203.5 479.946V532.215L152.158 583.458L100.807 532.215V479.946L48.8552 428.104L100.807 376.252V323.983L152.158 272.74L204.105 324.587H256.481L309.289 377.284L360.202 428.104L361.236 429.131L413.01 480.796V533.07L464.962 584.917L413.01 636.759V689.028L359.178 742.761H413.611L414.044 743.184L464.962 793.999L466.42 795.454L518.367 847.305H570.747L611.523 887.994H614.438L571.603 845.242H519.228L467.877 793.999L466.42 792.549L415.497 741.73L466.42 690.91L467.449 689.878L519.228 638.218H571.603L623.55 586.366L674.897 637.613V689.878L725.815 740.703H676.358L625.012 689.456L624.584 689.028V634.705L570.747 688.433H518.367L466.42 740.275L464.962 741.73L466.42 743.184L518.367 795.031H570.747L622.093 846.273L623.55 847.728L625.012 846.273L676.358 795.031H728.734L780.681 743.184L782.143 741.73L833.489 690.487H885.865L936.787 639.672V689.028L885.441 740.275L885.013 740.703H832.638L780.681 792.549L779.652 793.572L727.882 845.242H675.502L632.667 887.994H635.582L676.358 847.305H728.734L779.652 796.485V845.846L737.418 887.994H740.337L781.114 847.305H781.715V846.701L782.143 846.273L781.715 845.846V794.426L782.143 793.999L833.489 742.761H882.95L832.032 793.572V845.846L789.798 887.994H792.717L834.095 846.701V794.426L885.865 742.761L886.898 741.73L937.821 690.91L988.735 741.73L936.787 793.572V845.846L894.554 887.994H897.468L938.846 846.701V794.426L990.197 743.184L991.654 741.73L990.197 740.275L939.278 689.456L938.846 689.028V634.705L885.013 688.433H832.638L780.681 740.275L729.339 689.028V636.759L678.417 585.944H727.882L779.228 637.186L779.652 637.613V691.942L833.489 638.218H885.865L937.821 586.366L989.163 637.613V689.878L1041.11 741.73L989.163 793.572V845.846L946.929 887.994H949.848L991.226 846.701V794.426L1042.57 743.184L1044.03 741.73L1042.57 740.275L991.226 689.028V636.759L939.278 584.917L937.821 583.458L885.865 531.615H833.489L782.143 480.373L780.681 478.914L779.228 480.373L727.882 531.615H675.502L623.55 583.458L572.209 532.215V479.946L521.286 429.131H570.747L622.517 480.796V535.129L676.358 481.396H728.734L780.681 429.558L832.638 481.396H885.013L936.787 533.07L937.821 534.101L988.735 584.917L1041.54 637.613V689.878L1093.49 741.73L1041.54 793.572V845.846L999.304 887.994H1002.22L1043.6 846.701V794.426L1094.95 743.184V743.175L1096.4 741.73L1094.95 740.284V740.275L1043.6 689.028V636.759L990.197 583.458L939.278 532.647L938.846 532.215V479.946L886.898 428.104L937.821 377.284L990.197 429.558L1041.54 480.796V533.07L1094.95 586.366V583.458L1043.6 532.215V479.946L991.654 428.104L938.846 375.402V321.069L885.013 374.802H832.638L780.681 426.645L729.339 375.402V323.133L678.417 272.313H727.882L779.652 323.983V378.315L833.489 324.587H885.865L937.821 272.74L989.163 323.983V376.252L1042.57 429.558L1094.95 481.827V478.914L1044.03 428.104L991.226 375.402V323.133L939.278 271.281L991.226 219.439V167.165L1045.06 113.441H990.62L990.197 113.018L937.821 60.7444L885.441 113.018L885.013 113.441H832.638L780.681 165.283L729.763 114.468L781.715 62.6259L833.489 10.9563H885.865L937.821 -40.8906L989.768 10.9563H1042.14L1094.94 63.6485V63.653L1145.86 114.468L1094.94 165.283V168.197L1147.32 115.927L1147.75 115.5H1202.18L1148.35 61.7715V9.4974L1096.4 -42.3449L1148.35 -94.1918V-100H1146.29ZM258.367 -42.3429L309.29 -93.1581L360.203 -42.3429L309.29 8.47683L258.367 -42.3429ZM624.59 10.3548L676.364 -41.3193H725.82L674.902 9.49586V61.7699L623.556 113.017L571.609 61.1655H519.233L465.391 7.44163V61.7699L413.617 113.44H364.156L415.079 62.6244V10.3548L466.425 -40.8921L518.372 10.9547H570.752L624.59 64.6786V10.3548ZM518.795 113.017L467.449 61.7701V12.4092L518.367 63.2244H570.747L622.094 114.467L570.142 166.314V218.588L516.309 272.312H570.747L571.175 272.739L622.517 323.981V373.342L571.603 322.527H519.228L467.877 271.28L519.829 219.438V167.164L573.662 113.44H519.228L518.795 113.017ZM834.093 219.438V167.164L886.896 114.468L937.819 63.6523L988.733 114.468L936.785 166.314V218.588L885.011 270.254H835.55L886.468 219.438V167.164L939.276 114.468L937.819 113.018L884.41 166.314V218.588L831.602 271.281L780.679 322.1L728.732 270.254H676.356L675.928 269.831L624.582 218.588V169.228L675.5 220.043H727.88L780.679 272.74L834.093 219.438ZM415.5 114.468L466.423 63.6523L517.345 114.468L466.423 165.283L415.5 114.468ZM781.715 323.982L833.061 272.739L833.489 272.312H885.865L938.846 219.438V167.164L990.62 115.499H1040.08L989.163 166.314V218.588L937.821 269.831L885.013 322.527H832.638L781.715 373.343V323.982ZM781.714 167.164L833.488 115.499H882.949L832.031 166.314V218.588L780.68 269.831L728.733 217.984H676.358L622.516 164.26V218.588L570.746 270.253H521.285L572.208 219.438V167.164L623.549 115.926L675.501 167.768H727.881L781.714 221.501V167.164ZM624.581 375.401V323.132L572.629 271.28L623.547 220.47L674.47 271.28L727.273 323.982V376.251L779.225 428.103L727.879 479.345H675.499L624.581 530.156V480.795L675.927 429.557L676.355 429.13H730.793L676.956 375.401V323.132L623.547 269.831L622.09 271.28L674.893 323.982V376.251L725.811 427.071H676.355L624.581 375.401ZM782.148 428.104L833.495 376.857H885.87L936.793 326.046V375.402L885.018 427.072H832.037V429.131H885.018L936.793 480.796V530.157L885.87 479.346H833.495L782.148 428.104ZM153.188 375.402V326.046L204.11 376.857H256.486L307.832 428.104L255.884 479.946V532.215L202.043 585.944H256.486L308.26 637.613V686.979L257.342 636.159H204.962L153.616 584.917L205.567 533.07V480.796L259.4 427.072H204.962L153.188 375.402ZM101.234 428.1L152.157 377.28L203.071 428.1L152.157 478.911L101.234 428.1ZM415.079 689.881V637.617L467.882 584.92L466.425 583.461L415.079 532.219V479.949L364.156 429.134H413.617L465.391 480.799V533.073L517.348 584.92L465.391 636.762V689.032L464.968 689.459L413.617 740.706H364.156L415.079 689.881ZM625.01 794L675.929 743.185L676.357 742.762H730.795L676.958 689.029V636.76L625.01 584.917L676.357 533.67H728.732L780.679 481.828L832.636 533.67H885.011L936.357 584.917L885.011 636.16H832.636L781.713 686.98V637.614L833.487 585.945H886.468V583.89H833.487L782.141 532.648L780.679 531.189L779.227 532.648L728.304 583.458L727.88 583.89H673.438L727.275 637.614V689.879L779.227 741.731L727.88 792.973H675.5L623.549 844.82L571.601 792.973H519.226L467.875 741.731L519.226 690.488H571.601L622.515 639.673V689.029L570.745 740.703H517.764V742.762H570.745L622.091 794L623.549 795.454L625.01 794ZM729.762 584.921L780.68 534.105L831.603 584.921L780.68 635.736L729.762 584.921ZM258.367 584.921L309.29 534.105L360.203 584.921L309.29 635.736L258.367 584.921ZM572.629 741.729L623.547 690.909L674.47 741.729L623.547 792.549L572.629 741.729ZM1041.55 -100V-95.0416L987.707 -41.3178H1042.15L1042.58 -40.8906L1094.96 11.3835V8.47484L1044.04 -42.3449L1094.96 -93.1601V-96.0733L1042.15 -43.3766H992.689L1043.61 -94.1918V-100H1041.55ZM732.248 -100L727.886 -95.6461H675.506L623.554 -43.7992L572.212 -95.0416V-100H570.145V-94.1918L623.554 -40.8906L676.362 -93.5873H728.737L735.163 -100H732.248ZM627.492 -100L624.587 -97.1004V-100H622.52V-92.133L630.407 -100H627.492ZM46.3676 -96.2001V-95.0412L3.21401 -51.9748C2.79049 -50.6387 2.40796 -49.2889 2.06641 -47.9209L48.426 -94.1913V-96.8955C47.7338 -96.6818 47.0507 -96.4364 46.3676 -96.2001ZM0.168498 -35.7493L46.3687 10.3575V62.627L97.2868 113.442H47.826L0 65.7129L0 68.6216L45.9406 114.469L0 160.317L0 163.23L47.3979 115.928L47.826 115.501H102.264L48.4271 61.7726V9.49854L0.387089 -38.4444C0.291455 -37.5536 0.223145 -36.6537 0.168498 -35.7493ZM885.007 61.1629H832.632L779.223 114.464L780.675 115.923L833.483 63.2217H885.859L937.815 11.3794L989.763 63.2217H1042.14L1093.48 114.464L1041.54 166.311V218.585L990.191 269.827L988.729 271.277L990.191 272.736L1041.54 323.978V376.852H1043.6V323.129L991.648 271.277L1043.6 219.435V167.161L1094.95 115.923V115.914L1096.39 114.464L1094.95 113.019V113.014L1042.99 61.1629H990.614L937.815 8.4707L885.007 61.1629ZM1198.66 323.138V375.408L1145.86 428.109L1147.32 429.563L1198.66 480.801V533.075L1250.62 584.922L1199.26 636.164H1146.89L1094.94 688.011V690.915L1147.74 638.223H1200.12L1252.07 586.372L1304.02 638.223H1356.4L1410.24 691.947V637.619L1410.66 637.192L1463.04 584.922L1461.58 583.463L1410.24 532.221V479.351H1408.17V532.221L1356.4 583.895H1306.94L1357.86 533.075V480.801L1409.2 429.563L1460.55 480.801V533.075L1512.51 584.922L1460.55 636.764V689.034L1409.2 740.281L1357.26 688.439H1304.88L1253.53 637.192L1252.07 635.737L1250.62 637.192L1199.26 688.439H1146.29V690.493H1200.12L1252.07 638.646L1304.02 690.493H1356.4L1407.75 741.735L1356.4 792.978H1304.02L1253.11 843.793V794.432L1304.88 742.767H1357.86V740.708H1304.88L1252.07 688.011L1199.7 740.281L1199.26 740.708H1146.89L1094.94 792.555V795.459L1147.74 742.767H1197.21L1146.29 793.578V845.852L1104.05 888H1106.97L1148.35 846.706V794.432L1200.12 742.767L1252.07 690.915L1302.99 741.735L1251.04 793.578V845.852L1250.62 846.279L1208.81 888H1211.73L1252.07 847.733L1253.11 846.706L1304.88 795.036H1357.26L1409.2 743.19L1461.15 795.036H1513.53L1564.88 846.279L1566.33 847.733L1573.8 855.182C1574.18 854.578 1574.53 853.964 1574.88 853.35L1567.8 846.279L1566.33 844.824L1514.39 792.978H1462.01L1410.66 741.735L1462.61 689.884V637.619L1515.42 584.922L1462.61 532.221V479.951L1409.2 426.65L1357.26 374.808H1304.88L1251.04 321.075V375.408L1198.24 428.109L1251.04 480.801V533.675H1253.11V480.801L1304.88 429.136H1354.34L1303.42 479.951V532.221L1252.07 583.463L1200.73 532.221V479.951L1148.77 428.109L1200.73 376.258V323.988L1252.07 272.746L1304.02 324.592H1356.4L1409.2 377.289L1460.13 428.109L1461.15 429.136L1512.93 480.801V533.075L1564.88 584.922L1512.93 636.764V689.034L1459.09 742.767H1513.53L1513.96 743.19L1564.88 794.005L1566.33 795.459L1583.99 813.084V810.17L1567.8 794.005L1566.33 792.555L1515.42 741.735L1566.33 690.915L1567.37 689.884L1583.99 673.3V670.391L1567.37 686.984V637.619L1583.99 621.035V618.122L1565.31 636.764V689.034L1564.88 689.461L1513.53 740.708H1464.07L1514.99 689.884V637.619L1567.8 584.922L1566.33 583.463L1514.99 532.221V479.951L1464.07 429.136H1513.53L1565.31 480.801V533.075L1583.99 551.718V548.809L1567.37 532.221V479.951L1514.39 427.077H1462.01L1409.2 374.376V374.381L1357.26 322.534H1304.88L1252.07 269.837L1198.66 323.138ZM1253.1 375.402V326.046L1304.02 376.857H1356.4L1407.75 428.104L1355.79 479.946V532.215L1301.96 585.944H1356.4L1408.16 637.613V686.979L1357.25 636.159H1304.87L1253.53 584.917L1305.48 533.07V480.796L1359.31 427.072H1304.87L1253.1 375.402ZM1201.15 428.1L1252.08 377.28L1303 428.1L1252.08 478.911L1201.15 428.1ZM1358.29 584.921L1409.2 534.105L1460.13 584.921L1409.2 635.736L1358.29 584.921ZM0 434.525L46.3687 480.8V533.074L97.2868 583.894H47.826L0 536.165L0 539.073L45.9406 584.921L0 630.769L0 633.677L47.826 585.948H102.264L48.4271 532.22V479.95L0 431.621L0 434.525ZM1566.34 740.269L1564.89 741.723L1566.34 743.178L1584 760.798V757.884L1567.8 741.723L1584 725.562V722.653L1566.34 740.269ZM1198.67 793.572V845.846L1156.44 887.994H1159.35L1200.73 846.7V794.426L1253.54 741.73L1252.08 740.275L1198.67 793.572ZM884.418 793.572V845.846L842.18 887.994H845.099L886.476 846.7V794.426L939.284 741.73L937.827 740.275L884.418 793.572ZM98.7402 793.572V845.846L57.4766 887.026C58.319 887.167 59.1661 887.285 60.0177 887.399L100.803 846.7V794.426L153.607 741.73L152.154 740.275L98.7402 793.572ZM1407.76 794.002L1356.41 845.244H1304.03L1261.2 887.997H1264.11L1304.88 847.307H1357.26L1409.21 795.456L1461.16 847.307H1513.54L1546.63 880.339C1547.28 880.007 1547.91 879.675 1548.54 879.325L1514.39 845.244H1462.02L1410.67 794.002L1409.21 792.552L1407.76 794.002ZM307.827 794.002L256.48 845.244H204.105L161.266 887.997H164.185L204.957 847.307H257.337L309.288 795.456L361.236 847.307H413.611L454.392 887.997H457.302L414.467 845.244H362.087L310.741 794.002L309.288 792.552L307.827 794.002ZM1407.75 846.27L1365.95 887.991H1368.86L1409.21 847.724L1449.56 887.991H1452.47L1410.67 846.27L1409.21 844.815L1407.75 846.27ZM1051.68 887.991H1054.6L1094.95 847.724V844.815L1051.68 887.991ZM307.825 846.27L266.02 887.991H268.939L309.287 847.724L349.631 887.991H352.545L310.74 846.27L309.287 844.815L307.825 846.27Z" fill="url(#paint0_linear_122_24092)"/>
<defs>
<linearGradient id="paint0_linear_122_24092" x1="1584" y1="-0.500067" x2="894" y2="342" gradientUnits="userSpaceOnUse">
<stop stop-color="#DCB567" stop-opacity="0.2"/>
<stop offset="1" stop-color="#6E6E7D" stop-opacity="0.1"/>
</linearGradient>
</defs>
</svg>
