<svg width="432" height="560" viewBox="0 0 432 560" fill="none" xmlns="http://www.w3.org/2000/svg">
<path fill-rule="evenodd" clip-rule="evenodd" d="M0 -59.9557H2.53963L25.2095 -82.6519L47.8774 -59.9557H70.7341L94.2267 -36.4358V-60.2203L94.4135 -60.4053L116.817 -82.8389H138.402L116.181 -60.5923V-37.7111L93.7756 -15.2795L71.1077 -37.9737H48.253L25.8454 -60.4053L25.2095 -61.0439L24.5736 -60.4053L2.16803 -37.9737H0L0 -37.0724H2.53963L25.2095 -59.7687L47.8774 -37.0724H70.7341L93.1417 -14.6408L70.7341 7.79078H47.8774L25.6586 30.0354V8.42543L48.253 -14.1892H71.37V-15.0924H48.253L25.2095 -38.1607L2.16803 -15.0924H0L0 -14.1892H2.16803L24.5736 8.24041L24.7584 8.42543V32.2099L48.253 8.69003H71.1077L94.4135 -14.6408L117.081 -37.337V-60.2203L140.576 -83.7381H116.817L109.564 -91.0018H108.294L115.994 -83.2865L93.7756 -61.0439L71.5568 -83.2865L79.2612 -91.0018H77.9874L70.7341 -83.7381H49.1512L56.4045 -91.0018H55.1307L46.9792 -82.8389H70.7341L93.3265 -60.2203V-38.6123L71.1077 -60.8569H48.253L25.8454 -83.2865L33.5498 -91.0018H32.278L24.5736 -83.2865L2.16803 -60.8569H0L0 -59.9557ZM25.211 7.60156L2.99219 -14.641L25.211 -36.8876L47.4318 -14.641L25.211 7.60156ZM0 6.51944L1.90373 8.42538L1.90373 31.3086L24.5736 54.0048L25.2095 54.6395L25.8454 54.0048L48.253 31.5732H71.1077L116.817 -14.1893H139.674L162.793 -37.3371V-60.2203L185.836 -83.2866L193.539 -91.0019H192.265L184.562 -83.2866L161.893 -60.5924V-37.7111L139.302 -15.0925H117.719L139.938 -37.3371V-60.2203L162.98 -83.2866L170.684 -91.0019H169.41L162.342 -83.9252L155.275 -91.0019H154.003L161.708 -83.2866L139.038 -60.5924V-37.7111L116.445 -15.0925L70.7341 30.672H47.8774L25.2095 53.3682L2.80393 30.9366L2.80393 8.05334L0 5.24616L0 6.51944ZM0 52.2837L1.26783 53.553H0L0 54.4542H2.16803L24.5736 76.8858L25.2095 77.5225L25.8454 76.8858L48.253 54.4542H71.1077L94.4135 31.1233L116.817 8.68975H139.674L162.98 -14.6411L185.649 -37.3373V-60.2206L208.691 -83.2868L216.395 -91.0021H215.122L207.417 -83.2868H207.419L184.749 -60.5926V-37.7114L161.708 -14.6411L139.302 7.79049H116.445L93.1417 31.1233L70.7341 53.553H47.8774L25.2095 76.2512L2.53963 53.553L0 51.0104L0 52.2837ZM0 77.3383H2.16803L24.5736 99.7699L25.2095 100.407L25.8454 99.7699L48.253 77.3383H71.1077L93.7756 54.6421L116.181 77.0757V99.9569L138.851 122.651H138.855L161.708 145.53L162.342 146.167L162.98 145.53L185.832 122.651H185.836L185.834 122.649L185.836 122.647H185.832L162.793 99.5829V77.975L185.014 100.22H207.868L230.274 122.651H230.278L230.912 123.286L231.544 122.651H231.548L253.951 100.22H276.808L299.029 77.975V99.5829L275.985 122.651H277.259L299.478 100.407L321.693 122.649L299.478 144.894L276.434 167.962H253.58L230.274 191.293L230.912 191.932L253.951 168.863H276.808L299.478 146.167L322.964 122.651H322.968L322.966 122.649L322.968 122.647H322.964L299.927 99.5829V75.8004L276.434 99.3183H253.58L230.912 122.015L208.24 99.3183H185.385L162.342 76.252L140.125 54.0055L162.793 31.3092V8.42601L162.98 8.241L185.836 -14.6403L208.504 -37.3365V-60.2197L230.912 -82.6513L231.548 -83.2859L239.248 -91.0012H237.976L230.274 -83.2859L207.606 -60.5917V-37.7105L184.562 -14.6403L162.342 7.60236L139.302 30.6726H116.445L93.1417 54.0055L70.7341 76.4371H47.8774L25.2095 99.1333L2.53963 76.4371H0L0 77.3383ZM162.342 144.894L140.125 122.647H140.121L117.082 99.5827V76.6995L94.4141 54.0052L116.818 31.5736H139.674L161.893 9.32704V30.937L139.303 53.5536H115.548L139.038 77.0755V99.9567L161.708 122.651H162.98L139.939 99.5827V76.6995L117.72 54.4549H139.303L161.708 76.8865L161.893 77.0755V99.9567L184.561 122.649L162.342 144.894ZM0 100.219H2.16803L24.5736 122.651H24.5756L25.2095 123.285L25.8434 122.651H25.8454L48.253 100.219H71.1077L93.3265 77.9745V99.5824L70.289 122.647H70.285L47.6151 145.343V168.226L25.2095 190.656L2.53963 167.962H0L0 168.863H2.16803L24.5736 191.292L47.6151 214.363V237.244L69.8339 259.49H48.253L25.6586 236.872L25.6586 213.991L2.53963 190.845H0L0 191.744H2.16803L24.7584 214.363L24.7584 237.244L47.8774 260.392H70.7341L93.3265 283.008V304.618L71.1077 282.372H48.253L25.8454 259.942L2.80393 236.872L2.80393 213.991L0 211.183L0 212.457L1.90373 214.363L1.90373 237.244L24.5736 259.942L47.8774 283.273H70.7341L94.2267 306.793V283.008L94.4135 282.823L116.817 260.392H138.402L116.181 282.636V305.518L93.7756 327.949L71.1077 305.255H48.253L25.2095 282.187L2.99072 259.942L0 256.946L0 258.221L1.71693 259.942L24.5736 282.823L24.7584 283.008V305.892L47.4303 328.588L24.7584 351.282L2.16803 373.901H0L0 374.802H2.53963L24.7584 352.557V374.163L2.16803 396.784H0L0 397.685H2.53963L25.6586 374.539V351.656L25.8454 351.469L48.253 329.039H69.8339L47.6151 351.282V374.163L24.5736 397.233L2.16803 419.665H0L0 420.566H2.53963L25.2095 397.87L47.8774 420.566H70.7341L94.2267 444.084V420.304L94.4135 420.115L116.817 397.685H138.402L116.181 419.93V442.813L93.7756 465.245L71.1077 442.548H48.253L25.8454 420.117V420.115L25.2095 419.48L24.5736 420.115V420.117L2.16803 442.548H0L0 443.45H2.53963L25.2095 420.753L47.8774 443.45H70.7341L93.1417 465.879L70.7341 488.311H47.8774L25.6586 510.557V488.949L48.253 466.331H71.37V465.43H48.253L25.2095 442.361L2.16803 465.43H0L0 466.331H2.16803L24.5736 488.762L24.7584 488.949V512.734L48.253 489.212H71.1077L94.4135 465.879L117.081 443.185V420.304L140.576 396.784H116.817L94.2267 374.163V352.557L116.446 374.802H139.302L161.708 397.233L139.038 419.93V442.813L116.446 465.43L70.7341 511.194H47.8774L25.2095 533.89L2.80393 511.459L2.80393 488.575L0 485.768L0 487.041L1.90373 488.949L1.90373 511.831L24.5736 534.525L25.2095 535.164L25.8454 534.525L48.253 512.095H71.1077L116.817 466.331H139.674L162.793 443.185V420.304L185.836 397.233L208.504 374.539L208.504 351.656L231.548 328.588L230.912 327.949L207.606 351.282L207.606 374.163L184.562 397.233L161.893 419.93V442.813L139.302 465.43H117.719L139.938 443.185V420.304L162.98 397.233L185.649 374.539L185.649 351.656L208.24 329.039L208.466 328.811L208.691 328.588L230.912 306.341L253.129 328.588L230.461 351.282L230.461 374.163L230.312 374.314L207.417 397.233H207.419L184.749 419.93V442.813L161.708 465.879L139.302 488.311H116.446L93.1417 511.644V511.646L70.7341 534.077H47.8774L25.2095 556.771L2.53963 534.077L0 531.533L0 532.806L1.26783 534.077H0L0 534.976H2.16803L24.5736 557.408L25.2095 558.047L25.8454 557.408L48.253 534.976H71.1077L94.4135 511.644L116.817 489.212H139.674L162.98 465.879L185.649 443.185V420.304L208.691 397.233L231.361 374.539L253.951 351.921H276.808L299.478 329.224L321.883 351.656V374.539L344.104 396.784H322.519L299.927 374.163V350.383L276.434 373.901H253.58L230.274 397.233L207.606 419.93V442.813L184.562 465.879L162.342 488.126L139.302 511.194H116.446L93.1417 534.525L70.7341 556.958H47.8774L25.2095 579.653L2.53963 556.958H0L0 557.86H2.16803L24.5736 580.291L25.2095 580.928L25.8454 580.291L48.253 557.86H71.1077L93.7756 535.164L116.181 557.595V580.476L136.677 600.998H137.951L117.081 580.104V557.223L94.4135 534.525L116.817 512.095H139.674L161.893 489.849V511.459L139.302 534.077H115.547L139.038 557.595V580.476L159.534 600.998H160.808L139.938 580.104V557.223L117.719 534.976H139.302L161.708 557.408L161.893 557.595V580.476L182.388 600.998H183.662L162.793 580.104V558.496L185.014 580.741H207.868L228.102 600.998H229.374L208.24 579.842H185.385L162.342 556.771L140.125 534.525L162.793 511.831V488.949L162.98 488.762L185.836 465.879L208.504 443.185V420.304L230.912 397.87L231.548 397.233L253.951 374.802H276.808L299.029 352.557V374.163L276.434 396.784H253.58L230.461 419.93V442.813L207.417 465.879H207.419L184.749 488.575V511.459L161.708 534.525L185.014 557.86H207.868L230.912 580.928L231.548 580.291L253.951 557.86H276.808L299.478 535.164L321.883 557.595V580.476L342.379 600.998H343.653L322.784 580.104V557.223L300.112 534.525L322.784 511.831V488.949L346.274 465.43H322.519L322.333 465.245L299.478 442.361L298.84 442.998L276.434 465.43H253.317V466.331H276.434L299.029 488.949V510.557L276.808 488.311H253.951L231.548 465.879L253.951 443.45H276.808L299.478 420.753L322.146 443.45H345L367.408 465.879L344.74 488.575V511.459L322.333 533.89L321.697 534.525L322.333 535.164L344.74 557.595V580.741H345.638V557.223L322.968 534.525L345.638 511.831V488.949L368.044 466.518L390.45 488.949V511.831L412.668 534.077H391.085L368.495 511.459V488.311H367.595V511.459L344.553 534.525L367.408 557.408L367.595 557.595V580.476L388.091 600.998H389.365L368.495 580.104V558.496L390.712 580.741H413.569L424.065 591.249C424.268 591.027 424.462 590.8 424.659 590.571V590.571L413.942 579.842H391.085L368.495 557.223L345.823 534.525L368.044 512.282L390.712 534.976H413.569L413.755 535.164L431.998 553.429V552.154L414.391 534.525L413.942 534.077L391.35 511.459V488.575L368.68 465.879L391.35 443.185V420.304L413.755 397.87L414.391 397.233L431.998 379.607V378.333L413.755 396.597L413.119 397.233L390.45 419.93V442.813L368.044 465.245L345.372 442.548H322.519L299.478 419.48L276.434 442.548H253.58L230.274 465.879L207.606 488.575V511.459L184.111 534.976H207.868L230.912 558.047L253.951 534.976H277.07V534.077H253.951L231.361 511.459V489.849L253.58 512.095H276.434L298.84 534.525L276.434 556.958H253.58L230.912 579.655L208.24 556.958H185.385L162.98 534.525L185.649 511.831V488.949L208.691 465.879L230.912 443.637L231.361 443.185L253.951 420.566H276.808L299.478 397.87L322.146 420.566H345L368.495 444.084V420.304L368.68 420.115L390.899 397.87L391.535 397.233L414.206 374.539V351.656L431.998 333.842V332.569L413.304 351.282V374.163L390.899 396.597L390.265 397.233L368.044 419.48L345.823 397.233L345.372 396.784L322.784 374.163V351.282L300.112 328.588L322.519 306.156H345.372L367.595 283.912V305.518L345.187 327.949L345 328.136H321.248L344.74 351.656V374.539L367.408 397.233L368.044 397.87L368.68 397.233L391.35 374.539V351.656L413.755 329.224L414.391 328.588L413.755 327.949L391.35 305.518V282.636L368.68 259.942L368.044 259.303L345.638 236.872V213.991L323.42 191.744H345L367.408 214.176L367.595 214.363V237.244L390.265 259.942L390.712 260.392L413.304 283.008V305.892L431.998 324.605V323.332L414.206 305.518V282.636L391.986 260.392H413.569L431.998 278.842V277.567L414.206 259.753V259.49H413.942L413.755 259.303L413.569 259.49H391.085L390.899 259.303L368.495 236.872V215.264L390.712 237.508H413.569L431.998 255.959V254.684L413.942 236.607H391.085L368.495 213.991L368.044 213.539L345.823 191.292L368.044 169.05L390.712 191.744H413.569L431.998 210.195V208.921L413.942 190.845H391.085L368.68 168.411L368.044 167.775L367.408 168.411L345.187 190.656L345 190.845H321.248L344.74 214.363V237.244L367.408 259.942L345 282.372H322.146L299.927 304.618V283.008L322.333 260.577L322.519 260.392H346.274L322.784 236.872V213.991L300.112 191.292L322.519 168.863H345.372L368.044 146.167L390.712 168.863H413.569L431.998 187.313V186.038L413.942 167.962H391.085L368.68 145.53L368.044 144.893L367.408 145.53L345 167.962H322.146L299.478 190.656L298.84 191.292L276.172 213.991V236.872L253.766 259.303L253.129 259.942L253.766 260.577L276.172 283.008V305.892L298.84 328.588L276.434 351.017H253.58L231.361 373.264L231.361 351.656L253.951 329.039H277.708L254.214 305.518V282.636L231.548 259.942L254.214 237.244V214.363L276.808 191.744L277.259 191.292L299.478 169.05L322.519 145.98H345.372L368.044 123.285L390.712 145.98H413.569L431.998 164.432V163.157L413.942 145.08H391.085L368.68 122.647H368.676L368.044 122.014L367.412 122.647H367.408L345 145.08H322.146L298.84 168.411L276.623 190.656L276.434 190.845H253.58L230.912 213.539L208.691 191.292L231.548 168.411L253.951 145.98H276.808L300.112 122.647H298.84L276.434 145.08H253.58L230.912 167.775L207.868 190.845H184.111L207.606 214.363V237.244L230.274 259.942L207.868 282.372H185.014L162.793 304.618V283.008L185.385 260.392H209.142L185.649 236.872V213.991L162.98 191.292L185.385 168.863H208.24L231.548 145.53L254.402 122.647H253.129L230.912 144.893L207.868 167.962H185.014L162.342 190.656L139.674 167.962H116.817L93.3265 144.442V168.226L93.1417 168.411L70.285 191.292L93.1417 214.176L93.3265 214.363V237.244L115.994 259.942L93.7756 282.187L71.1077 259.49L48.5153 236.872V213.991L25.8454 191.292L48.5153 168.598V145.717L71.5548 122.651H71.5568L93.7756 100.406L115.994 122.651H117.268L94.4135 99.7694L94.2267 99.5824V75.7999L70.7341 99.3178H47.8774L25.2095 122.014L2.53963 99.3178H0L0 100.219ZM25.211 488.125L2.99219 465.879L25.211 443.636L47.4318 465.879L25.211 488.125ZM48.2545 328.136L25.6602 305.517V283.911L47.879 306.156H70.7356L93.1432 328.587L70.4714 351.281V374.163L46.9807 397.685H70.7356L93.328 420.303V441.911L71.1092 419.665H48.2545L25.847 397.233L48.5168 374.539V351.655L72.0075 328.136H48.2545ZM93.1428 374.354L70.7352 396.785H49.1523L71.3711 374.541V351.657L93.7767 329.226L116.447 351.922H139.303L162.794 375.44L162.794 351.657L162.981 351.47L185.386 329.041H206.969L184.75 351.283L184.75 374.165L162.343 396.598L139.675 373.902H116.818L93.3276 350.384V374.165L93.1428 374.354ZM139.672 236.608H116.815L93.7735 213.54L71.5547 191.293L93.7735 169.05L116.443 191.745H139.3L161.89 214.363V235.971L139.672 213.727H116.815L93.7735 190.656L93.1396 191.293L116.443 214.626H139.3L162.34 237.696L184.56 259.943L161.89 282.637V305.518L161.706 305.705L139.3 328.137H117.717L139.936 305.892V283.009L162.977 259.943L139.672 236.608ZM93.7735 419.48L71.5547 397.234L93.7735 374.987L115.992 397.234L93.7735 419.48ZM185.385 259.491L162.979 237.06L162.793 236.873V213.991L139.674 190.846H116.817L94.2266 168.227V146.619L116.445 168.864H139.302L161.708 191.293L184.749 214.363V237.245L206.968 259.491H185.385ZM116.817 259.49L94.2266 236.872V215.264L116.445 237.508H139.302L161.708 259.942L139.038 282.636V305.517L115.547 329.039H139.302L161.892 351.656L161.892 373.264L139.674 351.017H116.817L94.4134 328.587L117.081 305.891V283.008L140.576 259.49H116.817ZM207.868 328.136H185.014L162.342 350.832L140.125 328.588L162.342 306.341L185.385 283.273H208.24L230.912 260.577L253.317 283.008V305.891L275.534 328.136H253.951L231.548 305.704L231.361 305.517V281.735L207.868 305.255H185.014L161.708 328.588L162.342 329.224L185.385 306.156H208.24L230.461 283.911V305.517L207.868 328.136ZM230.91 259.302L208.502 236.87V213.989L186.285 191.742H207.866L230.458 214.361V237.507H231.359V214.361L253.949 191.742H275.532L253.315 213.989V236.87L230.91 259.302ZM207.866 534.077H186.285L208.502 511.831V488.949L230.91 466.518L253.577 489.212H276.432L299.925 512.734V488.949L322.517 466.331H344.102L321.881 488.575V511.459L299.476 533.89L276.806 511.194H253.949L230.458 487.676V511.459L207.866 534.077ZM230.912 556.771L208.691 534.525L230.912 512.282L253.129 534.525L230.912 556.771ZM345.374 419.665H322.522L299.48 396.596L298.842 397.233L276.437 419.665H253.582L231.363 441.911V420.303L253.954 397.685H276.81L299.48 374.986L322.148 397.685H345.003L345.19 397.87L367.597 420.303V441.911L345.374 419.665ZM390.899 327.949L368.68 305.704L368.495 305.517V281.735L345 305.255H322.146L299.478 327.949L277.07 305.517V282.636L254.402 259.942L277.07 237.244V214.362L299.478 191.931L321.883 214.362V237.244L344.104 259.49H322.519L299.927 236.872V213.726H299.029V236.872L276.623 259.303L275.985 259.942L276.623 260.577L298.84 282.823L299.029 283.008V306.793L322.519 283.273H345.372L368.044 260.577L390.45 283.008V305.891L413.119 328.588L390.45 351.282V374.163L368.044 396.597L345.638 374.163V351.282L323.42 329.039H345L367.595 351.656V374.802H368.495V351.656L390.899 329.224L391.535 328.588L390.899 327.949ZM299.481 282.187L277.262 259.942L299.481 237.695L321.699 259.942L299.481 282.187ZM299.481 488.125L277.262 465.879L299.481 443.636L321.699 465.879L299.481 488.125ZM368.045 350.832L345.824 328.588L368.045 306.341L390.266 328.588L368.045 350.832ZM0 145.979H2.16803L25.6586 169.501L25.6586 145.717L25.8454 145.529L48.7021 122.646H47.4303L25.2095 144.893L2.99072 122.646H1.71693L24.7584 145.717L24.7584 167.324L2.53963 145.08H0L0 145.979ZM0 281.103L1.90373 283.009L1.90373 305.892L24.5736 328.588L2.16803 351.018H0L0 351.921H2.53963L25.8454 328.588L2.80393 305.518L2.80393 282.637L0 279.829L0 281.103ZM0 326.866L1.26783 328.136H0L0 329.039H3.43983L0 325.593L0 326.866ZM1.65951 580.74H2.16624L20.9969 599.592C21.5811 599.777 22.1713 599.945 22.7695 600.094V600.094L2.53785 579.841H1.35547C1.44887 580.143 1.55618 580.441 1.65951 580.74V580.74ZM28.0925 600.924L48.2525 580.741H71.1072L93.326 558.496V580.104L72.4565 600.998H73.7283L93.7751 580.928L113.822 600.998H115.096L94.413 580.291L94.2262 580.104V556.322L70.7336 579.842H47.877L26.9141 600.829C27.3036 600.871 27.697 600.901 28.0925 600.924V600.924ZM70.4692 214.363V237.244L93.775 260.577L94.4129 259.942L71.3694 236.872V213.991L48.7015 191.293L71.3694 168.599V145.717L93.775 123.286L116.445 145.98H139.302L161.707 168.412L162.341 169.05L162.979 168.412L185.385 145.98H208.504V145.081H185.013L162.341 167.775L139.673 145.081H116.816L94.4129 122.647H94.4089L93.775 122.014L93.1431 122.647H93.1411L70.4692 145.343V168.227L47.4297 191.293L70.4692 214.363ZM185.017 77.3374H207.871L230.915 100.406L231.551 99.769L253.954 77.3374H276.811L299.481 54.6392L321.887 77.0748V99.956L344.556 122.65H345.826L322.787 99.582V76.6988L300.115 54.0046L322.787 31.3084V8.42513L346.277 -15.0927H322.523L322.336 -15.2798L299.481 -38.161L298.843 -37.5243L276.438 -15.0927H253.321V-14.1895H276.438L299.032 8.42513V30.0351L276.811 7.79048H253.954L231.551 -14.6411L253.954 -37.0727H276.811L299.481 -59.7709L322.149 -37.0727H345.004L367.411 -14.6411L344.743 8.05309V30.9363L322.336 53.3679L321.7 54.0046L322.336 54.6392L344.743 77.0748V100.219H345.641V76.6988L322.972 54.0046L345.641 31.3084V8.42513L368.047 -14.0065L390.453 8.42513V31.3084L412.671 53.553H391.089L368.498 30.9363V7.79048H367.598V30.9363L344.556 54.0046L367.411 76.8858L367.598 77.0748V99.956L390.268 122.65H391.538L368.498 99.582V77.9741L390.715 100.219H413.572L432.001 118.669V117.396L413.945 99.3174H391.089L368.498 76.6988L345.826 54.0046L368.047 31.758L390.715 54.4542H413.572L413.758 54.6392L432.001 72.9048V71.6295L414.394 54.0046L413.945 53.553L391.353 30.9363V8.05309L368.683 -14.6411L391.353 -37.3373V-60.2206L413.758 -82.6522L414.394 -83.2868L417.651 -86.5496C417.387 -86.7127 417.119 -86.8679 416.851 -87.0211V-87.0211L413.758 -83.9255L413.123 -83.2868L390.453 -60.5926V-37.7114L368.047 -15.2798L345.375 -37.974H322.523L299.481 -61.0442L276.438 -37.974H253.583L230.277 -14.6411L207.609 8.05309V30.9363L184.115 54.4542H207.871L230.915 77.5224L253.954 54.4542H277.073V53.553H253.954L231.364 30.9363V9.32637L253.583 31.573H276.438L298.843 54.0046L276.438 76.4362H253.583L230.915 99.1324L208.243 76.4362H185.388L162.983 54.0046L185.653 31.3084V8.42513L208.694 -14.6411L230.915 -36.8877L231.364 -37.3373L253.954 -59.956H276.811L299.481 -82.6522L322.149 -59.956H345.004L368.498 -36.4361V-60.2206L368.683 -60.4056L390.902 -82.6522L391.538 -83.2868L399.244 -91.0021H397.97L390.902 -83.9255L390.268 -83.2868L368.047 -61.0442L345.826 -83.2868L345.375 -83.7384L338.124 -91.0021H336.852L344.107 -83.7384H322.523L315.271 -91.0021H313.997L322.149 -82.8392H345.004L345.19 -82.6522L367.598 -60.2206V-38.6126L345.375 -60.8572H322.523L299.481 -83.9255L298.843 -83.2868L276.438 -60.8572H253.583L231.364 -38.6126V-60.2206L253.954 -82.8392H276.811L284.963 -91.0021H283.691L276.438 -83.7384H253.583L230.464 -60.5926V-37.7114L207.42 -14.6411H207.422L184.752 8.05309V30.9363L161.711 54.0046L185.017 77.3374ZM207.866 53.5538H186.285L208.502 31.3092V8.42595L230.91 -14.0057L253.577 8.69055H276.432L299.925 32.2104V8.42595L322.517 -14.1887H344.102L321.881 8.05391V30.9371L299.476 53.3687L276.806 30.6725H253.949L230.458 7.15266V30.9371L207.866 53.5538ZM230.912 76.2521L208.691 54.0055L230.912 31.7589L253.129 54.0055L230.912 76.2521ZM299.481 7.60156L277.262 -14.641L299.481 -36.8876L321.699 -14.641L299.481 7.60156ZM233.719 600.998L253.953 580.741H276.809L299.03 558.496V580.104L278.161 600.998H279.432L299.479 580.928L319.526 600.998H320.798L299.928 580.104V556.322L276.436 579.842H253.581L232.449 600.998H233.719ZM367.405 -83.286L368.041 -82.6514L368.677 -83.286L376.382 -91.0013H375.108L368.041 -83.9246L360.975 -91.0013H359.703L367.405 -83.286ZM390.714 77.3374H413.571L432 95.786V94.5148L413.944 76.4362H391.088L368.046 53.3679L367.41 54.0046L390.714 77.3374ZM390.714 214.625H413.571L432 233.078V231.803L413.944 213.726H391.088L368.046 190.656L367.41 191.293L390.714 214.625ZM390.714 557.86H413.571L431.577 575.887C431.638 575.519 431.69 575.149 431.74 574.777V574.777L413.944 556.959H391.088L368.046 533.89L367.41 534.525L390.714 557.86ZM390.9 -14.0066L413.305 8.42502V31.3082L431.999 50.0215V48.7482L414.207 30.9362V8.05299L391.535 -14.6412L414.207 -37.3375V-60.2207L428.65 -74.6784C428.505 -74.9609 428.36 -75.2374 428.207 -75.512V-75.512L413.305 -60.5927V-37.7115L390.9 -15.2799L390.266 -14.6412L390.9 -14.0066ZM390.9 466.518L413.305 488.95V511.831L431.999 530.546V529.271L414.207 511.459V488.576L391.535 465.879L414.207 443.185V420.304L431.999 402.488V401.217L413.305 419.93V442.813L390.9 465.245L390.266 465.879L390.9 466.518ZM413.757 -14.0056L431.999 4.258V2.98472L414.393 -14.6403L431.999 -32.2672V-33.5425L413.757 -15.2789L413.121 -14.6403L413.757 -14.0056ZM431.999 141.549V140.274L414.393 122.647H413.121L431.999 141.549ZM413.757 466.518L431.999 484.782V483.507L414.393 465.88L431.999 448.255V446.982L413.757 465.245L413.121 465.88L413.757 466.518Z" fill="url(#paint0_linear_122_26437)"/>
<defs>
<linearGradient id="paint0_linear_122_26437" x1="216" y1="428.401" x2="216" y2="-52.6921" gradientUnits="userSpaceOnUse">
<stop stop-color="#DCB567"/>
<stop offset="1" stop-color="#6E6E7D" stop-opacity="0.5"/>
</linearGradient>
</defs>
</svg>
