<!-- Generated by IcoMoon.io -->
<svg version="1.1" xmlns="http://www.w3.org/2000/svg" width="896" height="1024" viewBox="0 0 896 1024">
<title></title>
<g id="icomoon-ignore">
</g>
<path fill="#dcb567" d="M691.2 0c28.275 0 51.2 22.923 51.2 51.2v51.2h51.2c56.32 0 102.4 46.080 102.4 102.4v716.8c0 56.32-46.080 102.4-102.4 102.4h-691.2c-56.832 0-102.4-46.080-102.4-102.4l0.512-716.8c0-56.32 45.056-102.4 101.888-102.4h51.2v-51.2c0-28.277 22.923-51.2 51.2-51.2s51.2 22.923 51.2 51.2v51.2h384v-51.2c0-28.277 22.925-51.2 51.2-51.2zM704 608c0-17.673-14.33-32-32-32h-192c-17.673 0-32 14.327-32 32v192c0 17.67 14.327 32 32 32h192c17.67 0 32-14.33 32-32v-192zM128 896h640v-512h-640v512z"></path>
</svg>
