<svg width="680" height="224" viewBox="0 0 680 224" fill="none" xmlns="http://www.w3.org/2000/svg">
<path fill-rule="evenodd" clip-rule="evenodd" d="M649.493 -60V-57.5074L671.796 -35.2573L649.493 -13.0092V9.42418L626.381 32.4817H649.753L649.935 32.665L671.979 54.6537V75.8389L650.119 54.0296H627.634L605.592 32.039L627.892 9.79085V-12.6406L649.935 -34.6332L650.562 -35.2573L649.935 -35.8815L627.892 -57.8721V-60H627.007V-57.5074L649.309 -35.2573L627.007 -13.0092V9.42418L604.964 31.4168L582.921 9.42418V-13.0092L561.063 -34.8165H582.298L604.52 -12.6406V10.0483H605.408V-12.6406L628.076 -35.2573L605.408 -57.8721V-60H604.52V-57.8721L582.48 -35.8815L582.298 -35.7001H558.926L582.038 -12.6406V9.79085L604.964 32.665L627.267 54.9131H649.753L672.863 77.9726V54.6537L680.001 47.5348V46.2885L672.419 53.8463L650.562 32.039L672.419 10.2316L680.001 17.7933V16.5431L672.863 9.42418V-11.759L680.001 -4.64009V-5.8903L671.979 -13.8908V9.42418L649.753 31.5982H628.52L650.379 9.79085V-12.6406L672.419 -34.6332L680.001 -27.0715V-28.3198L672.419 -35.8815L650.379 -57.8721V-60H649.493ZM583.105 -35.2568L604.962 -57.0641L626.823 -35.2568L604.962 -13.4476L583.105 -35.2568ZM584.168 -60L582.295 -58.1315H559.809L537.506 -35.8815L536.883 -35.2573L537.506 -34.6332L559.549 -12.6406V9.79084L604.518 54.6537V77.0871L627.264 99.778H649.751L672.417 122.395L679.999 129.954V128.704L672.417 121.145L650.116 98.8945H627.632L605.406 76.7224V55.5392L627.264 77.3465H649.751L672.417 99.9613L679.999 107.523V106.273L673.045 99.3352L679.999 92.3996V91.1514L672.417 98.7131L650.116 76.463H627.632L605.406 54.289L560.435 9.42416V-13.0092L538.132 -35.2573L560.175 -57.248H582.661L585.42 -60H584.168ZM539.196 -60L537.948 -58.7557V-60H537.063V-57.8721L515.02 -35.8815L514.395 -35.2573L515.02 -34.6332L537.063 -12.6406V9.79084L559.989 32.665L582.034 54.6537V77.0871L604.96 99.9613L627.263 122.211H649.749L672.415 144.826L679.997 152.388V151.138L672.415 143.576V143.578L650.115 121.328H627.63L604.96 98.7131L582.917 76.7224V54.289L559.989 31.4168L537.948 9.42416V-13.0092L515.644 -35.2573L537.948 -57.5074L540.447 -60H539.196ZM514.579 -60V-57.8721L492.536 -35.8815L491.91 -35.2573L492.536 -34.6332L514.579 -12.6406V9.79083L536.881 32.0389L514.837 54.0296H492.352L470.052 76.2797V76.2836L447.569 98.713L446.944 99.3352L447.569 99.9613L470.052 122.391V122.395L470.054 122.393L470.056 122.395V122.391L492.72 99.778H513.953L492.094 121.587V144.019L470.052 166.009V166.013L469.428 166.635L470.052 167.256V167.26L492.094 189.248V211.682L513.953 233.491H492.72L470.052 210.874V212.124L491.91 233.932L470.054 255.735L448.195 233.932L425.526 211.315V188.884L402.6 166.009L401.973 166.635L424.641 189.248V211.682L446.944 233.932L470.052 256.983V256.987L470.054 256.985L470.056 256.987V256.983L492.72 234.372H516.09L492.98 211.315V188.884L470.677 166.635L492.98 144.383V121.952L515.646 99.3352L537.507 77.5299L559.81 99.778H582.296L582.478 99.9613L604.962 122.395L627.265 144.643H649.751L671.794 166.635L672.418 167.26L679.999 174.817V173.569L672.418 166.009L650.117 143.761H627.632L604.962 121.145L583.105 99.3352L560.435 76.7224V54.289L537.507 31.4168L515.464 9.42416V-13.0092L493.162 -35.2573L515.464 -57.5074V-60H514.579ZM448.195 99.3367L470.056 77.5313V77.5274L492.72 54.9146H515.207L537.508 32.6665L559.55 54.6552V77.0886L581.411 98.8959H560.176L537.951 76.7239V53.4089L514.837 76.4644H492.353L470.052 98.7145V99.9628L492.72 77.348H515.207L537.066 55.5407V76.7239L515.023 98.7145L514.837 98.8959H492.353L470.054 121.144L448.195 99.3367ZM492.095 -60V-57.8721L470.052 -35.8815V-35.8795L469.429 -35.2573L470.052 -34.6352V-34.6332L492.095 -12.6406V9.79084L513.954 31.5982H492.721L470.056 8.98727V8.98338L447.754 -13.2667H425.267L403.227 -35.2573L425.527 -57.5074V-60H424.642V-57.8721L402.601 -35.8815L379.931 -13.2667H357.446L335.585 8.54064V-12.6406L357.812 -34.8166H380.296L403.041 -57.5074V-60H402.157V-57.8721L379.931 -35.7001H357.446L334.7 -13.0092V9.42416L312.475 31.5982H291.24L313.101 9.79084V-12.6406L335.142 -34.6332L357.812 -57.248H380.296L383.055 -60H381.804L379.931 -58.1315H357.446L335.142 -35.8815L312.215 -13.0092V9.42416L289.103 32.4817H312.475L312.657 32.665L334.7 54.6537V75.8389L312.841 54.0296H290.357L268.314 32.039L290.615 9.79084V-12.6406L313.283 -35.2573L335.142 -57.0647L338.086 -60H336.833L335.142 -58.3149L312.657 -35.8815L312.475 -35.7001H289.989L267.686 -13.4481L245.386 -35.7001L223.159 -57.8721V-60H222.274V-57.5074L244.133 -35.7001H222.901L200.673 -57.8721V-60H199.787V-57.5074L222.532 -34.8166H245.018L245.202 -34.6332L267.243 -12.6406V8.54064L245.386 -13.2667H222.901L200.231 -35.8815L178.188 -57.8721V-60H177.303V-57.5074L199.605 -35.2573L177.303 -13.0092V9.42416L154.193 32.4817H177.561L177.747 32.665L199.787 54.6537V75.8389L177.928 54.0296H155.442L133.399 32.039L155.702 9.79084V-12.6406L177.745 -34.6332H177.747L178.37 -35.2573L177.747 -35.8815H177.745L155.702 -57.8721V-60H154.816V-57.5074L177.119 -35.2573L154.816 -13.0092V9.42416L132.776 31.4168L110.733 9.42416V-13.0092L88.8723 -34.8166H110.106L132.332 -12.6406V10.0483H133.218V-12.6406L155.886 -35.2573L133.218 -57.8721V-60H132.332V-57.8721L110.289 -35.8815L110.106 -35.7001H86.7336L109.848 -12.6406V9.79084L132.776 32.665L155.076 54.9131H177.561L200.673 77.9726V54.6537L222.901 32.4817H244.133L222.274 54.289V76.7224L200.231 98.7131L177.928 76.463H155.442L133.218 54.289L88.2467 9.42416V-13.0092L65.9441 -35.2573L87.9867 -57.248H110.473L113.232 -60H111.98L110.106 -58.1315H87.6211L65.3204 -35.8815L64.6929 -35.2573L65.3204 -34.6332L87.3611 -12.6406V9.79084L132.332 54.6537V77.0871L155.076 99.778H177.561L200.231 122.395L222.532 144.643H245.018L267.686 167.26L268.314 166.635L245.386 143.761H222.901L200.231 121.145L177.928 98.8945H155.442L133.218 76.7224V55.5392L155.076 77.3465H177.561L200.231 99.9613L222.532 122.211H245.018L267.243 144.383L267.467 144.606L267.686 144.826L289.547 166.635L267.686 188.441L245.386 166.193H222.901L222.753 166.046L200.231 143.576V143.578L177.928 121.328H155.442L132.776 98.7131L110.733 76.7224V54.289L87.8049 31.4168H87.8029L65.7603 9.42416V-13.0092L43.4596 -35.2573L65.7603 -57.5074L68.2608 -60H67.0096L65.7603 -58.7557V-60H64.8767V-57.8721L42.834 -35.8815L42.2065 -35.2573L42.834 -34.6332L64.8767 -12.6406V9.79084L87.8049 32.665L109.848 54.6537V77.0871L132.776 99.9613L155.076 122.211H177.561L200.231 144.826L222.532 167.076L244.758 189.248V211.682L267.061 233.932L245.018 255.922H222.532L200.673 277.732V256.547L222.901 234.372H246.269L223.159 211.315V188.884L200.231 166.009L177.928 143.761H155.442L132.776 121.145L110.915 99.3352L88.2467 76.7224V54.289L65.3204 31.4168L43.2759 9.42416V-13.0092L20.9752 -35.2573L43.2759 -57.5074V-60H42.3903V-57.8721L20.3476 -35.8815L19.722 -35.2573L20.3476 -34.6332L42.3903 -12.6406V9.79084L64.6929 32.039L42.6503 54.0296H20.1658L0 74.1459L0 75.3961L20.5314 54.9131H43.0159L65.3204 32.665L87.3611 54.6537V77.0871L109.222 98.8945H87.9867L65.7603 76.7224V53.4074L42.6503 76.463H20.1658L0 96.5793L0 97.8295L20.5314 77.3465H43.0159L64.8767 55.5392V76.7224L42.834 98.7131L42.6503 98.8945H20.1658L0 119.011L0 120.261L20.5314 99.778H41.7647L19.9058 121.587V144.019L0 163.878L0 165.126L20.7895 144.383V121.952L43.4596 99.3352L65.3204 77.5299L87.6211 99.778H110.106L110.289 99.9613L132.776 122.395L155.076 144.643H177.561L199.605 166.635L200.231 167.26L222.274 189.248V211.682L244.133 233.491H222.901L200.673 211.315V188.884L177.928 166.193H155.442L132.776 143.576V143.578L110.473 121.328H87.9867L65.3204 98.7131L42.3903 121.587V144.019L19.722 166.635L20.3476 167.26L42.3903 189.248V211.682L64.6929 233.932L42.6503 255.922H20.1658L0 276.039L0 277.289L20.5314 256.806H43.0159L65.3204 234.554L87.6211 256.806H110.106L133.218 279.861V256.547L133.399 256.363L155.886 233.932L155.26 233.306L133.218 211.315V188.626H132.332V211.315L110.106 233.491H88.8723L110.733 211.682V189.248L132.776 167.26L154.816 189.248V211.682L177.119 233.932L154.816 256.18V278.611L132.776 300.604L110.473 278.356H87.9867L65.9441 256.363L65.3204 255.739L64.6929 256.363L42.6503 278.356H19.9058V279.237H43.0159L65.3204 256.987L87.6211 279.237H110.106L132.148 301.228L110.106 323.219H87.6211L65.7603 345.026V323.843L87.9867 301.671H110.733V300.787H87.9867L65.3204 278.172L42.834 300.604L42.6503 300.787H20.1658L0 320.904L0 322.154L20.5314 301.671H41.7647L19.9058 323.476V345.91L9.5795 356.211C9.79846 356.41 10.0213 356.602 10.2462 356.795L20.7895 346.276V323.843L43.0159 301.671L65.3204 279.419L87.1773 301.228L64.8767 323.476V345.91L64.6929 346.093L46.744 363.997H47.9972L65.3204 346.717L65.7603 346.276L87.9867 324.102H110.473L132.776 301.852L155.076 324.102H177.561L199.605 346.093L200.231 346.717L217.552 363.997H218.804L200.857 346.093L200.231 345.469L177.928 323.219H155.442L133.399 301.228L155.702 278.976V256.547L178.37 233.932L155.702 211.315V188.884L132.776 166.009L110.473 143.761H87.9867L64.8767 120.702V144.019L42.2065 166.635L64.8767 189.248V211.939H65.7603V189.248L87.9867 167.076H109.222L87.3611 188.884V211.315L65.3204 233.306L43.2759 211.315V188.884L20.9732 166.635L43.2759 144.383V121.952L65.3204 99.9613L87.6211 122.211H110.106L132.776 144.826L154.633 166.635L155.076 167.076L177.303 189.248V211.682L199.605 233.932L177.303 256.18V278.611L154.193 301.671H177.561L177.747 301.852L199.605 323.659L200.231 324.284L222.532 346.536H245.018L262.523 363.997H263.774L245.386 345.65H222.901L200.857 323.659L200.231 323.037L178.37 301.228L200.231 279.419L200.673 278.976L222.901 256.806H245.386L267.686 234.554L289.729 256.547V278.976L311.588 300.787H290.357L268.314 278.795L268.13 278.611V255.298L245.018 278.356H222.532L200.231 300.604L199.605 301.228L200.231 301.852L222.532 324.102H245.018L267.061 346.093L267.686 346.717L268.314 346.093L290.357 324.102H312.841L335.142 301.852L335.769 301.228L357.812 279.237H380.296L402.157 257.43V278.611L380.114 300.604L379.931 300.787H357.446L335.142 323.037L334.7 323.476L312.475 345.65H289.989L271.6 363.997H272.851L290.357 346.536H312.841L334.7 324.726V345.91L316.569 363.997H317.822L335.327 346.536H335.585V346.276L335.769 346.093L335.585 345.91V323.843L335.769 323.659L357.812 301.671H379.045L357.186 323.476V345.91L339.056 363.997H340.309L358.072 346.276V323.843L380.296 301.671L380.74 301.228L402.601 279.419L424.458 301.228L402.157 323.476V345.91L384.026 363.997H385.278L403.041 346.276V323.843L425.085 301.852L425.711 301.228L425.085 300.604L403.227 278.795L403.041 278.611V255.298L379.931 278.356H357.446L335.142 300.604L313.101 278.611V256.18L291.24 234.372H312.475L334.518 256.363L334.7 256.547V279.861L357.812 256.806H380.296L402.601 234.554L424.642 256.547V278.976L446.944 301.228L424.642 323.476V345.91L406.511 363.997H407.764L425.527 346.276V323.843L447.57 301.852L448.195 301.228L447.57 300.604L425.527 278.611V256.18L403.227 233.932L402.601 233.306L380.296 211.058H357.812L335.769 189.067L335.142 188.441L334.518 189.067L312.475 211.058H289.989L267.686 233.306L245.646 211.315V188.884L223.785 167.076H245.018L267.243 189.248V212.565L290.357 189.506H312.841L335.142 167.26L357.446 189.506H379.931L402.157 211.682L402.601 212.124L424.458 233.932L447.128 256.547V278.976L469.429 301.228L447.128 323.476V345.91L428.995 363.997H430.249L448.012 346.276V323.843L470.056 301.852V301.848L470.678 301.228L470.056 300.608V300.604L448.012 278.611V256.18L425.085 233.306L403.227 211.5L403.041 211.315V188.884L380.74 166.635L402.601 144.826L425.085 167.26L447.128 189.248V211.682L470.056 234.554V233.306L448.012 211.315V188.884L425.711 166.635L403.041 144.019V120.702L379.931 143.761H357.446L335.142 166.009L313.101 144.019V121.587L291.24 99.778H312.475L334.7 121.952V145.269L357.812 122.211H380.296L402.601 99.9613L424.642 121.952V144.383L447.57 167.26L470.056 189.691V188.441L448.195 166.635L425.527 144.019V121.587L403.227 99.3352L425.527 77.0871V54.6537L448.639 31.5982H425.267L425.085 31.4168L402.601 8.98338L380.114 31.4168L379.931 31.5982H357.446L335.142 53.8463L313.283 32.039L335.585 9.79084L357.812 -12.3832H380.296L402.601 -34.6332L424.902 -12.3832H447.386L470.052 10.2297V10.2316L491.911 32.039L470.052 53.8463V55.0965L492.537 32.665L492.721 32.4817H516.091L492.981 9.42416V-13.0092L470.678 -35.2573L492.981 -57.5074V-60H492.095ZM110.914 -35.2568L132.775 -57.0641L154.632 -35.2568L132.775 -13.4476L110.914 -35.2568ZM268.131 -12.6412L290.357 -34.8172H311.588L289.729 -13.0099V9.42355L267.687 31.4162L245.386 9.16415H222.902L199.788 -13.8914V9.42355L177.561 31.5975H156.328L178.189 9.79022V-12.6412L200.232 -34.6338L222.532 -12.3838H245.019L268.131 10.6718V-12.6412ZM222.714 31.4166L200.672 9.42396V-11.7592L222.531 10.0481H245.017L267.06 32.0387L244.757 54.2888V76.7222L221.647 99.7778H245.017L245.201 99.9611L267.242 121.952V143.135L245.385 121.328H222.9L200.856 99.335L223.158 77.0869V54.6535L246.268 31.598H222.9L222.714 31.4166ZM358.071 77.0869V54.6535L380.739 32.0387L402.6 10.2314L424.457 32.0387L402.156 54.2888V76.7222L379.929 98.8942H358.696L380.555 77.0869V54.6535L403.225 32.0387L402.6 31.4165L379.671 54.2888V76.7222L357.001 99.335L335.14 121.144L312.84 98.8942H290.355L290.172 98.7128L268.129 76.7222V55.539L289.988 77.3463H312.474L335.14 99.9611L358.071 77.0869ZM178.371 32.0387L200.232 10.2314L222.093 32.0387L200.232 53.846L178.371 32.0387ZM335.586 121.952L357.629 99.9609L357.812 99.7776H380.297L403.041 77.0867V54.6533L425.268 32.4813H446.501L424.642 54.2886V76.722L402.601 98.7127L379.931 121.327H357.447L335.586 143.135V121.952ZM335.586 54.6533L357.812 32.4813H379.045L357.186 54.2886V76.722L335.142 98.7126L312.841 76.4626H290.357L267.243 53.407V76.722L245.018 98.894H223.785L245.646 77.0867V54.6533L267.687 32.6646L289.989 54.9127H312.476L335.586 77.9722V54.6533ZM268.131 144.019V121.587L245.828 99.3352L267.687 77.5298L289.548 99.3352L312.216 121.952V144.383L334.519 166.635L312.476 188.626H289.99L268.131 210.431V189.248L290.173 167.26L290.357 167.076H313.727L290.615 144.019V121.587L267.687 98.713L267.061 99.3352L289.73 121.952V144.383L311.588 166.193H290.357L268.131 144.019ZM335.77 166.635L357.812 144.642H380.297L402.157 122.837V144.018L379.931 166.192H357.187V167.075H379.931L402.157 189.248V210.431L380.297 188.625H357.812L335.77 166.635ZM65.7617 144.018V122.837L87.6225 144.642H110.107L132.15 166.635L109.849 188.883V211.314L86.735 234.372H110.107L132.333 256.546V277.731L110.475 255.922H87.9881L65.9455 233.931L88.2481 211.681V189.248L111.358 166.192H87.9881L65.7617 144.018ZM43.4609 166.634L65.3217 144.824L87.1786 166.634L65.3217 188.439L43.4609 166.634ZM178.189 278.977V256.548L200.857 233.933L200.232 233.307L178.189 211.316V188.885L156.328 167.077H177.561L199.788 189.249V211.683L222.092 233.933L199.788 256.181V278.612L199.606 278.796L177.561 300.788H156.328L178.189 278.977ZM268.313 323.659L290.172 301.852L290.355 301.67H313.725L290.613 278.611V256.18L268.313 233.931L290.355 211.939H312.84L335.14 189.691L357.445 211.939H379.93L401.972 233.931L379.93 255.922H357.445L335.584 277.731V256.546L357.811 234.372H380.555V233.491H357.811L335.768 211.5L335.14 210.874L334.517 211.5L312.656 233.305L312.474 233.491H289.102L312.214 256.546V278.976L334.517 301.228L312.474 323.218H289.988L267.685 345.468L245.384 323.218H222.9L200.855 301.228L222.9 279.237H245.384L267.241 257.43V278.611L245.017 300.787H222.272V301.67H245.017L267.06 323.659L267.685 324.283L268.313 323.659ZM313.281 233.933L335.14 212.126L357.001 233.933L335.14 255.74L313.281 233.933ZM110.914 233.933L132.775 212.126L154.632 233.933L132.775 255.74L110.914 233.933ZM245.828 301.228L267.687 279.418L289.548 301.228L267.687 323.037L245.828 301.228ZM447.129 -60V-57.8721L424.016 -34.8166H447.388L447.571 -34.6332L470.058 -12.1998V-13.4481L448.197 -35.2573L470.058 -57.0647V-58.3149L447.388 -35.7001H426.154L448.013 -57.5074V-60H447.129ZM314.348 -60L312.475 -58.1315H289.989L267.686 -35.8815L245.645 -57.8721V-60H244.758V-57.5074L267.686 -34.6332L290.356 -57.248H312.841L315.599 -60H314.348ZM269.377 -60L268.13 -58.7557V-60H267.242V-56.6239L270.628 -60H269.377ZM19.905 -58.3692V-57.8718L1.37938 -39.3899C1.19756 -38.8165 1.03334 -38.2372 0.886719 -37.6501L20.7886 -57.5071V-58.6676C20.4915 -58.5759 20.1982 -58.4706 19.905 -58.3692ZM0.072335 -32.4266L19.9058 -12.6399V9.79157L41.7647 31.5989H20.5314L0 11.1159L0 12.3641L19.722 32.0397L0 51.7152L0 52.9654L20.3476 32.6658L20.5314 32.4824H43.9015L20.7895 9.4249V-13.0085L0.166175 -33.5832C0.12512 -33.2009 0.095795 -32.8147 0.072335 -32.4266ZM379.928 9.16344H357.444L334.516 32.0376L335.139 32.6637L357.809 10.047H380.294L402.598 -12.2011L424.899 10.047H447.384L469.426 32.0376L447.126 54.2877V76.7211L425.083 98.7117L424.455 99.3339L425.083 99.96L447.126 121.951V144.641H448.009V121.586L425.709 99.3339L448.009 77.0858V54.6524L470.054 32.6637V32.6598L470.675 32.0376L470.054 31.4174V31.4154L447.751 9.16344H425.265L402.598 -13.4494L379.928 9.16344ZM514.578 121.59V144.021L491.91 166.638L492.535 167.262L514.578 189.251V211.684L536.882 233.934L514.836 255.925H492.351L470.051 278.175V279.421L492.719 256.808H515.205L537.506 234.556L559.809 256.808H582.295L605.405 279.864V256.549L605.589 256.365L628.073 233.934L627.448 233.308L605.405 211.317V188.628H604.518V211.317L582.295 233.493H561.06L582.919 211.684V189.251L604.961 167.262L627.004 189.251V211.684L649.309 233.934L627.004 256.182V278.614L604.961 300.606L582.661 278.358H560.174L538.132 256.365L537.506 255.741L536.882 256.365L514.836 278.358H492.093V279.24H515.205L537.506 256.99L559.809 279.24H582.295L604.338 301.23L582.295 323.221H559.809L537.95 345.028V323.845L560.174 301.673H582.919V300.79H560.174L537.506 278.175L515.022 300.606L514.836 300.79H492.351L470.051 323.04V324.286L492.719 301.673H513.952L492.093 323.478V345.912L473.963 364H475.214L492.979 346.278V323.845L515.205 301.673L537.506 279.421L559.367 301.23L537.064 323.478V345.912L536.882 346.095L518.934 364H520.187L537.506 346.719L537.95 346.278L560.174 324.104H582.661L604.961 301.854L627.264 324.104H649.75L671.793 346.095L672.417 346.719L675.623 349.916C675.783 349.657 675.936 349.393 676.086 349.13L673.044 346.095L672.417 345.471L650.116 323.221H627.632L605.589 301.23L627.89 278.978V256.549L650.56 233.934L627.89 211.317V188.886L604.961 166.012L582.661 143.764H560.174L537.064 120.704V144.021L514.396 166.638L537.064 189.251V211.941H537.95V189.251L560.174 167.079H581.409L559.549 188.886V211.317L537.506 233.308L515.463 211.317V188.886L493.161 166.638L515.463 144.386V121.954L537.506 99.9636L559.809 122.214H582.295L604.961 144.828L626.822 166.638L627.264 167.079L649.49 189.251V211.684L671.793 233.934L649.49 256.182V278.614L626.378 301.673H649.75L649.932 301.854L671.793 323.662L672.417 324.286L679.998 331.849V330.599L673.044 323.662L672.417 323.04L650.56 301.23L672.417 279.421L672.86 278.978L679.998 271.861V270.613L672.86 277.734V256.549L679.998 249.432V248.182L671.977 256.182V278.614L671.793 278.797L649.75 300.79H628.517L650.376 278.978V256.549L673.044 233.934L672.417 233.308L650.376 211.317V188.886L628.517 167.079H649.75L671.977 189.251V211.684L679.998 219.684V218.436L672.86 211.317V188.886L650.116 166.195H627.632L604.961 143.578V143.58L582.661 121.33H560.174L537.506 98.7153L514.578 121.59ZM537.949 144.018V122.837L559.808 144.642H582.294L604.337 166.635L582.034 188.883V211.314L558.922 234.372H582.294L604.517 256.546V277.731L582.66 255.922H560.174L538.131 233.931L560.434 211.681V189.248L583.546 166.192H560.174L537.949 144.018ZM515.648 166.634L537.509 144.824L559.37 166.634L537.509 188.439L515.648 166.634ZM583.105 233.933L604.962 212.126L626.823 233.933L604.962 255.74L583.105 233.933ZM0 169.392L19.9058 189.251V211.684L41.7647 233.493H20.5314L0 213.01L0 214.259L19.722 233.934L0 253.61L0 254.858L20.5314 234.375H43.9015L20.7895 211.317V188.886L0 168.146L0 169.392ZM672.421 300.601L671.797 301.225L672.421 301.849L680.002 309.411V308.16L673.048 301.225L680.002 294.289V293.041L672.421 300.601ZM514.582 323.476V345.91L496.453 363.997H497.702L515.467 346.276V323.843L538.136 301.228L537.51 300.604L514.582 323.476ZM379.672 323.476V345.91L361.539 363.997H362.792L380.555 346.276V323.843L403.226 301.228L402.6 300.604L379.672 323.476ZM42.39 323.476V345.91L24.6758 363.582C25.0375 363.642 25.4011 363.693 25.7667 363.742L43.2756 346.276V323.843L65.9439 301.228L65.3202 300.604L42.39 323.476ZM604.34 323.66L582.297 345.651H559.811L541.422 363.998H542.673L560.176 346.536H582.663L604.963 324.284L627.266 346.536H649.752L663.959 360.712C664.237 360.569 664.509 360.427 664.778 360.277L650.118 345.651H627.633L605.591 323.66L604.963 323.038L604.34 323.66ZM132.148 323.66L110.106 345.651H87.6211L69.2305 363.998H70.4836L87.9867 346.536H110.473L132.776 324.284L155.076 346.536H177.561L195.068 363.998H196.317L177.928 345.651H155.442L133.399 323.66L132.776 323.038L132.148 323.66ZM604.341 346.091L586.395 363.996H587.646L604.965 346.716L622.286 363.996H623.54L605.593 346.091L604.965 345.467L604.341 346.091ZM451.48 363.996H452.734L470.055 346.716V345.467L451.48 363.996ZM132.146 346.091L114.199 363.996H115.452L132.774 346.716L150.093 363.996H151.344L133.397 346.091L132.774 345.467L132.146 346.091Z" fill="url(#paint0_linear_122_27218)"/>
<defs>
<linearGradient id="paint0_linear_122_27218" x1="334.5" y1="152" x2="642.356" y2="152" gradientUnits="userSpaceOnUse">
<stop stop-color="#6E6E7D" stop-opacity="0.5"/>
<stop offset="1" stop-color="#DCB567"/>
</linearGradient>
</defs>
</svg>
