<svg width="14" height="16" viewBox="0 0 14 16" fill="none" xmlns="http://www.w3.org/2000/svg">
<path d="M5 12.1428H9C9.55 12.1428 10 11.7089 10 11.1785V6.35709H11.59C12.48 6.35709 12.93 5.31565 12.3 4.70815L7.71 0.282055C7.32 -0.0940184 6.69 -0.0940184 6.3 0.282055L1.71 4.70815C1.08 5.31565 1.52 6.35709 2.41 6.35709H4V11.1785C4 11.7089 4.45 12.1428 5 12.1428ZM1 14.0714H13C13.55 14.0714 14 14.5053 14 15.0357C14 15.5661 13.55 16 13 16H1C0.45 16 0 15.5661 0 15.0357C0 14.5053 0.45 14.0714 1 14.0714Z" fill="#DCB567"/>
</svg>
