<svg width="512" height="268" viewBox="0 0 512 268" fill="none" xmlns="http://www.w3.org/2000/svg">
<path fill-rule="evenodd" clip-rule="evenodd" d="M0 -455.31H3.00993L29.8779 -482.139L56.7436 -455.31H83.833L111.676 -427.508V-455.623L111.897 -455.842L138.45 -482.36H164.032L137.696 -456.063V-429.015L111.141 -402.499L84.2757 -429.326H57.1887L30.6316 -455.842L29.8779 -456.596L29.1243 -455.842L2.56951 -429.326H0L0 -428.26H3.00993L29.8779 -455.089L56.7436 -428.26H83.833L110.39 -401.744L83.833 -375.228H56.7436L30.4102 -348.933V-374.478L57.1887 -401.21H84.5866V-402.278H57.1887L29.8779 -429.547L2.56951 -402.278H0L0 -401.21H2.56951L29.1243 -374.697L29.3433 -374.478V-346.363L57.1887 -374.165H84.2757L111.897 -401.744L138.763 -428.573V-455.623L166.608 -483.423H138.45L129.853 -492.009H128.348L137.475 -482.889L111.141 -456.596L84.808 -482.889L93.9391 -492.009H92.4294L83.833 -483.423H58.2533L66.8497 -492.009H65.34L55.679 -482.36H83.833L110.609 -455.623V-430.081L84.2757 -456.375H57.1887L30.6316 -482.889L39.7627 -492.009H38.2553L29.1243 -482.889L2.56951 -456.375H0L0 -455.31ZM29.8802 -375.452L3.54688 -401.745L29.8802 -428.042L56.216 -401.745L29.8802 -375.452ZM0 -376.731L2.25627 -374.478L2.25627 -347.429L29.1243 -320.6L29.8779 -319.85L30.6316 -320.6L57.1887 -347.116H84.2757L138.45 -401.211H165.539L192.939 -428.573V-455.623L220.25 -482.889L229.379 -492.009H227.869L218.741 -482.889L191.873 -456.063V-429.015L165.099 -402.278H139.519L165.852 -428.573V-455.623L193.161 -482.889L202.292 -492.009H200.782L192.405 -483.644L184.03 -492.009H182.522L191.654 -482.889L164.786 -456.063V-429.015L138.009 -402.278L83.833 -348.181H56.7436L29.8779 -321.352L3.32317 -347.868L3.32317 -374.918L0 -378.237L0 -376.731ZM0 -322.634L1.50261 -321.134H0L0 -320.069H2.56951L29.1243 -293.553L29.8779 -292.8L30.6316 -293.553L57.1887 -320.069H84.2757L111.897 -347.648L138.45 -374.166H165.539L193.161 -401.745L220.029 -428.574V-455.624L247.337 -482.89L256.468 -492.01H254.959L245.828 -482.89H245.83L218.962 -456.063V-429.016L191.654 -401.745L165.099 -375.229H138.009L110.39 -347.648L83.833 -321.134H56.7436L29.8779 -294.303L3.00993 -321.134L0 -324.14L0 -322.634ZM0 -293.018H2.56951L29.1243 -266.502L29.8779 -265.75L30.6316 -266.502L57.1887 -293.018H84.2757L111.141 -319.847L137.696 -293.329V-266.281L164.564 -239.455H164.569L191.653 -212.41L192.405 -211.657L193.161 -212.41L220.245 -239.455H220.25L220.248 -239.457L220.25 -239.459H220.245L192.939 -266.723V-292.266L219.275 -265.971H246.362L272.917 -239.455H272.922L273.673 -238.705L274.422 -239.455H274.427L300.979 -265.971H328.068L354.404 -292.266V-266.723L327.093 -239.455H328.603L354.936 -265.75L381.265 -239.457L354.936 -213.162L327.626 -185.894H300.539L272.917 -158.315L273.673 -157.56L300.979 -184.828H328.068L354.936 -211.657L382.772 -239.455H382.777L382.775 -239.457L382.777 -239.459H382.772L355.469 -266.723V-294.836L327.626 -267.036H300.539L273.673 -240.207L246.803 -267.036H219.716L192.405 -294.302L166.074 -320.599L192.939 -347.428L192.939 -374.478L193.161 -374.697L220.25 -401.744L247.116 -428.573V-455.623L273.673 -482.139L274.427 -482.889L283.553 -492.009H282.046L272.917 -482.889L246.051 -456.063V-429.015L218.741 -401.744L192.405 -375.452L165.099 -348.181H138.009L110.39 -320.599L83.8329 -294.084H56.7436L29.8779 -267.255L3.00993 -294.084H0L0 -293.018ZM192.406 -213.163L166.075 -239.46H166.07L138.764 -266.724V-293.773L111.898 -320.6L138.451 -347.116H165.54L191.874 -373.413L191.874 -347.868L165.1 -321.134H136.946L164.787 -293.329V-266.282L191.655 -239.455H193.162L165.853 -266.724V-293.773L139.52 -320.068H165.1L191.655 -293.552L191.874 -293.329V-266.282L218.739 -239.458L192.406 -213.163ZM0 -265.971H2.56951L29.1243 -239.455H29.1266L29.8779 -238.705L30.6292 -239.455H30.6316L57.1887 -265.971H84.2757L110.609 -292.266V-266.723L83.3054 -239.46H83.3007L56.4327 -212.631L56.4327 -185.581L29.8779 -159.067L3.00993 -185.894H0L0 -184.828H2.56951L29.1243 -158.315L56.4327 -131.044V-103.997L82.7661 -77.6992H57.1887L30.4102 -104.436L30.4102 -131.484L3.00993 -158.844H0L0 -157.781H2.56951L29.3433 -131.044L29.3433 -103.997L56.7436 -76.6339H83.833L110.609 -49.8992V-24.3546L84.2757 -50.6518H57.1887L30.6316 -77.1654L3.32317 -104.436L3.32317 -131.484L0 -134.802L0 -133.297L2.25627 -131.044L2.25627 -103.997L29.1243 -77.1654L56.7436 -49.5865H83.833L111.676 -21.7841L111.676 -49.8992L111.897 -50.118L138.45 -76.6339H164.032L137.696 -50.339V-23.2916L111.141 3.22443L84.2757 -23.602H57.1887L29.8779 -50.8705L3.54456 -77.1654L0 -80.7072L0 -79.1997L2.03488 -77.1654L29.1243 -50.118L29.3433 -49.8992V-22.8494L56.2137 3.97931L29.3433 30.8057L2.56951 57.5428H0L0 58.6081H3.00993L29.3433 32.3132V57.8532L2.56951 84.5926H0L0 85.6579H3.00993L30.4102 58.2977V31.2479L30.6316 31.0268L57.1887 4.51318H82.7661L56.4327 30.8057L56.4327 57.8532L29.1243 85.1241L2.56951 111.64H0L0 112.705H3.00993L29.8779 85.8766L56.7436 112.705H83.833L111.676 140.505V112.395L111.897 112.172L138.45 85.6579H164.032L137.696 111.953V139.003L111.141 165.519L84.2757 138.69H57.1887L30.6316 112.174V112.172L29.8779 111.421L29.1243 112.172V112.174L2.56951 138.69H0L0 139.755H3.00993L29.8779 112.926L56.7436 139.755H83.833L110.39 166.269L83.833 192.785H56.7436L30.4102 219.082V193.54L57.1887 166.803H84.5866V165.737H57.1887L29.8779 138.469L2.56951 165.737H0L0 166.803H2.56951L29.1243 193.319L29.3433 193.54V221.655L57.1887 193.85H84.2757L111.897 166.269L138.763 139.442V112.395L166.608 84.5926H138.45L111.676 57.8532V32.3132L138.009 58.6081H165.099L191.654 85.1241L164.786 111.953V139.003L138.009 165.737L83.833 219.835H56.7436L29.8779 246.663L3.32317 220.147L3.32317 193.098L0 189.779L0 191.284L2.25627 193.54L2.25627 220.587L29.1243 247.414L29.8779 248.168L30.6316 247.414L57.1887 220.9H84.2757L138.45 166.803H165.539L192.939 139.442V112.395L220.25 85.1241L247.116 58.2977V31.2479L274.427 3.97931L273.673 3.22443L246.051 30.8057V57.8532L218.741 85.1241L191.873 111.953V139.003L165.099 165.737H139.519L165.852 139.442V112.395L193.161 85.1241L220.029 58.2977V31.2479L246.803 4.51318L247.071 4.24271L247.337 3.97931L273.673 -22.3179L300.004 3.97931L273.138 30.8057V57.8532L272.962 58.0319L245.828 85.1241H245.83L218.962 111.953V139.003L191.654 166.269L165.099 192.785H138.009L110.39 220.366V220.368L83.833 246.884H56.7436L29.8779 273.711L3.00993 246.884L0 243.877L0 245.382L1.50261 246.884H0L0 247.947H2.56951L29.1243 274.463L29.8779 275.218L30.6316 274.463L57.1887 247.947H84.2757L111.897 220.366L138.45 193.85H165.539L193.161 166.269L220.029 139.442V112.395L247.337 85.1241L274.205 58.2977L300.979 31.5606H328.068L354.936 4.73187L381.491 31.2479V58.2977L407.827 84.5926H382.245L355.469 57.8532V29.7428L327.626 57.5428H300.539L272.917 85.1241L246.051 111.953V139.003L218.741 166.269L192.405 192.566L165.099 219.835H138.009L110.39 247.414L83.833 273.932H56.7436L29.8779 300.758L3.00993 273.932H0L0 274.997H2.56951L29.1243 301.513L29.8779 302.266L30.6316 301.513L57.1887 274.997H84.2757L111.141 248.168L137.696 274.684V301.732L161.988 325.99H163.497L138.763 301.292V274.245L111.897 247.414L138.45 220.9H165.539L191.873 194.603V220.147L165.099 246.884H136.945L164.786 274.684V301.732L189.077 325.99H190.587L165.852 301.292V274.245L139.519 247.947H165.099L191.654 274.463L191.873 274.684V301.732L216.164 325.99H217.674L192.939 301.292V275.75L219.275 302.045H246.362L270.343 325.99H271.85L246.803 300.982H219.716L192.405 273.711L166.074 247.414L192.939 220.587V193.54L193.161 193.319L220.25 166.269L247.116 139.442V112.395L273.673 85.8766L274.427 85.1241L300.979 58.6081H328.068L354.404 32.3132V57.8532L327.626 84.5926H300.539L273.138 111.953V139.003L245.828 166.269H245.83L218.962 193.098V220.147L191.654 247.414L219.275 274.997H246.362L273.673 302.266L274.427 301.513L300.979 274.997H328.068L354.936 248.168L381.491 274.684V301.732L405.783 325.99H407.292L382.558 301.292V274.245L355.688 247.414L382.558 220.587V193.54L410.399 165.737H382.245L382.023 165.519L354.936 138.469L354.18 139.221L327.626 165.737H300.228V166.803H327.626L354.404 193.54V219.082L328.068 192.785H300.979L274.427 166.269L300.979 139.755H328.068L354.936 112.926L381.802 139.755H408.889L435.446 166.269L408.581 193.098V220.147L382.023 246.663L381.27 247.414L382.023 248.168L408.581 274.684V302.045H409.645V274.245L382.777 247.414L409.645 220.587V193.54L436.2 167.024L462.755 193.54V220.587L489.088 246.884H463.508L436.734 220.147V192.785H435.668V220.147L408.359 247.414L435.446 274.463L435.668 274.684V301.732L459.959 325.99H461.469L436.734 301.292V275.75L463.066 302.045H490.155L502.595 314.467C502.835 314.203 503.066 313.935 503.299 313.665L490.598 300.982H463.508L436.734 274.245L409.864 247.414L436.2 221.121L463.066 247.947H490.155L490.376 248.168L511.997 269.76V268.252L491.13 247.414L490.598 246.884L463.822 220.147V193.098L436.954 166.269L463.822 139.442V112.395L490.376 85.8766L491.13 85.1241L511.997 64.2876V62.7825L490.376 84.3715L489.623 85.1241L462.755 111.953V139.003L436.2 165.519L409.33 138.69H382.245L354.936 111.421L327.626 138.69H300.539L272.917 166.269L246.051 193.098V220.147L218.206 247.947H246.362L273.673 275.218L300.979 247.947H328.379V246.884H300.979L274.205 220.147V194.603L300.539 220.9H327.626L354.18 247.414L327.626 273.932H300.539L273.673 300.761L246.803 273.932H219.716L193.161 247.414L220.029 220.587V193.54L247.337 166.269L273.673 139.976L274.205 139.442L300.979 112.705H328.068L354.936 85.8766L381.802 112.705H408.889L436.734 140.505V112.395L436.954 112.172L463.287 85.8766L464.041 85.1241L490.911 58.2977V31.2479L511.997 10.1903V8.68518L489.842 30.8057V57.8532L463.287 84.3715L462.536 85.1241L436.2 111.421L409.864 85.1241L409.33 84.5926L382.558 57.8532V30.8057L355.688 3.97931L382.245 -22.5366H409.33L435.668 -48.8315V-23.2916L409.11 3.22443L408.889 3.44547H380.738L408.581 31.2479V58.2977L435.446 85.1241L436.2 85.8766L436.954 85.1241L463.822 58.2977V31.2479L490.376 4.73187L491.13 3.97931L490.376 3.22443L463.822 -23.2916V-50.339L436.954 -77.1654L436.2 -77.9203L409.645 -104.436V-131.484L383.312 -157.781H408.889L435.446 -131.265L435.668 -131.044V-103.997L462.536 -77.1654L463.066 -76.6339L489.842 -49.8992V-22.8494L511.997 -0.728851V-2.23401L490.911 -23.2916V-50.339L464.575 -76.6339H490.155L511.997 -54.8238V-56.3313L490.911 -77.3888V-77.6992H490.598L490.376 -77.9203L490.155 -77.6992L463.508 -77.6992L463.287 -77.9203L436.734 -104.436V-129.979L463.066 -103.684L490.155 -103.684L511.997 -81.8736V-83.3811L490.598 -104.749L463.508 -104.749L436.734 -131.484L436.2 -132.018L409.864 -158.315L436.2 -184.607L463.066 -157.781L490.155 -157.781L511.997 -135.971V-137.476L490.598 -158.844L463.508 -158.844L436.954 -185.362L436.2 -186.115L435.446 -185.362L409.11 -159.067L408.889 -158.844H380.738L408.581 -131.044V-103.997L435.446 -77.1654L408.889 -50.6518H381.802L355.469 -24.3546V-49.8992L382.023 -76.4152L382.245 -76.6339H410.399L382.558 -104.436V-131.484L355.688 -158.315L382.245 -184.828H409.33L436.2 -211.657L463.066 -184.828L490.155 -184.828L511.997 -163.018V-164.526L490.598 -185.894L463.508 -185.894L436.954 -212.41L436.2 -213.162L435.446 -212.41L408.889 -185.894H381.802L354.936 -159.067L354.18 -158.315L327.315 -131.484V-104.436L300.76 -77.9203L300.004 -77.1654L300.76 -76.4152L327.315 -49.8992V-22.8494L354.18 3.97931L327.626 30.493H300.539L274.205 56.7902V31.2479L300.979 4.51318H329.135L301.29 -23.2916V-50.339L274.427 -77.1654L301.29 -103.997V-131.044L328.068 -157.781L328.603 -158.315L354.936 -184.607L382.245 -211.878H409.33L436.2 -238.705L463.066 -211.878H490.155L511.997 -190.066V-191.573L490.598 -212.941H463.508L436.954 -239.46H436.949L436.2 -240.207L435.451 -239.46H435.446L408.889 -212.941H381.802L354.18 -185.362L327.849 -159.067L327.626 -158.844H300.539L273.673 -132.018L247.337 -158.315L274.427 -185.362L300.979 -211.878H328.068L355.688 -239.46H354.18L327.626 -212.941H300.539L273.673 -186.115L246.362 -158.844H218.206L246.051 -131.044V-103.997L272.917 -77.1654L246.362 -50.6518H219.275L192.939 -24.3546V-49.8992L219.716 -76.6339H247.872L220.029 -104.436V-131.484L193.161 -158.315L219.716 -184.828H246.803L274.427 -212.41L301.514 -239.46H300.004L273.673 -213.162L246.362 -185.894H219.275L192.405 -159.067L165.539 -185.894H138.45L110.609 -213.696V-185.581L110.39 -185.362L83.3007 -158.315L110.39 -131.265L110.609 -131.044V-103.997L137.475 -77.1654L111.141 -50.8705L84.2757 -77.6992L57.4996 -104.436V-131.484L30.6316 -158.315L57.4996 -185.141L57.4996 -212.189L84.8056 -239.455H84.808L111.141 -265.75L137.475 -239.455H138.984L111.897 -266.502L111.676 -266.723V-294.836L83.833 -267.036H56.7436L29.8779 -240.207L3.00993 -267.036H0L0 -265.971ZM29.8802 192.565L3.54688 166.268L29.8802 139.976L56.216 166.268L29.8802 192.565ZM57.1887 3.44431L30.4102 -23.2927V-48.8327L56.7435 -22.5378H83.8329L110.39 3.97815L83.5197 30.8046V57.852L55.679 85.6568H83.8329L110.609 112.394V137.936L84.2757 111.639H57.1887L30.6315 85.1229L57.4995 58.2965L57.4995 31.2467L85.3402 3.44431H57.1887ZM110.391 58.0772L83.8336 84.5932H58.2539L84.5873 58.2982V31.2484L111.142 4.73245L138.01 31.5612H165.099L192.94 59.3612V31.2484L193.161 31.0274L219.716 4.51376H245.296L218.963 30.8063V57.8538L192.405 84.3721L165.54 57.5433H138.45L110.61 29.7433V57.8538L110.391 58.0772ZM165.536 -104.749H138.446L111.138 -132.017L84.8047 -158.315L111.138 -184.607L138.006 -157.781H165.095L191.869 -131.044V-105.501L165.536 -131.796H138.446L111.138 -159.067L110.387 -158.315L138.006 -130.733H165.095L192.402 -103.462L218.737 -77.1651L191.869 -50.3387V-23.2912L191.65 -23.0702L165.095 3.4458H139.516L165.849 -22.8491V-49.8989L193.158 -77.1651L165.536 -104.749ZM111.138 111.421L84.8047 85.1237L111.138 58.8264L137.471 85.1237L111.138 111.421ZM219.715 -77.6986L193.161 -104.215L192.939 -104.436V-131.483L165.539 -158.843H138.45L111.676 -185.58V-211.123L138.009 -184.828H165.099L191.653 -158.314L218.962 -131.043V-103.996L245.295 -77.6986H219.715ZM138.45 -77.6997L111.676 -104.437V-129.979L138.009 -103.684H165.099L191.653 -77.1659L164.785 -50.3394V-23.292L136.945 4.51276H165.099L191.872 31.2474V56.7898L165.539 30.4925H138.45L111.897 3.97891L138.763 -22.8499V-49.8997L166.608 -77.6997H138.45ZM246.363 3.44479H219.276L192.405 30.2736L166.074 3.97864L192.405 -22.3186L219.716 -49.5871H246.803L273.673 -76.4159L300.228 -49.8999V-22.8501L326.559 3.44479H300.979L274.427 -23.0712L274.206 -23.2922V-51.405L246.363 -23.6027H219.276L191.654 3.97864L192.405 4.7312L219.716 -22.5373H246.803L273.139 -48.8322V-23.2922L246.363 3.44479ZM273.669 -77.9213L247.112 -104.437V-131.485L220.781 -157.782H246.359L273.135 -131.045V-103.685H274.202V-131.045L300.975 -157.782H326.555L300.224 -131.485V-104.437L273.669 -77.9213ZM246.359 246.884H220.781L247.112 220.587V193.539L273.669 167.023L300.535 193.85H327.622L355.465 221.654V193.539L382.241 166.802H407.823L381.488 193.097V220.147L354.933 246.663L328.065 219.834H300.975L273.135 192.034V220.147L246.359 246.884ZM273.672 273.711L247.336 247.413L273.672 221.121L300.003 247.413L273.672 273.711ZM409.331 111.639H382.247L354.938 84.3704L354.182 85.1229L327.627 111.639H300.54L274.207 137.936V112.394L300.981 85.6568H328.07L354.938 58.8257L381.804 85.6568H408.891L409.112 85.8755L435.669 112.394V137.936L409.331 111.639ZM463.289 3.22339L436.955 -23.0715L436.736 -23.2926V-51.4054L408.891 -23.603H381.804L354.938 3.22339L328.381 -23.2926V-50.3401L301.516 -77.1664L328.381 -103.998V-131.045L354.938 -157.561L381.493 -131.045V-103.998L407.829 -77.7003H382.247L355.471 -104.437V-131.798H354.406V-104.437L327.851 -77.9214L327.095 -77.1664L327.851 -76.4162L354.182 -50.119L354.406 -49.9003V-21.7851L382.247 -49.5875H409.331L436.202 -76.4162L462.757 -49.9003V-22.8505L489.625 3.9783L462.757 30.8047V57.8522L436.202 84.3705L409.647 57.8522V30.8047L383.314 4.51215H408.891L435.67 31.2468V58.6071H436.736V31.2468L463.289 4.73087L464.043 3.9783L463.289 3.22339ZM354.935 -50.8708L328.602 -77.1658L354.935 -103.463L381.268 -77.1658L354.935 -50.8708ZM354.935 192.565L328.602 166.268L354.935 139.976L381.268 166.268L354.935 192.565ZM436.203 30.2736L409.867 3.97864L436.203 -22.3186L462.539 3.97864L436.203 30.2736ZM0 -211.878H2.56951L30.4102 -184.073V-212.188L30.6316 -212.409L57.721 -239.459H56.2137L29.8779 -213.162L3.54456 -239.459H2.03488L29.3433 -212.188V-186.646L3.00993 -212.941H0L0 -211.878ZM0 -52.1522L2.25627 -49.8992L2.25627 -22.8494L29.1243 3.97937L2.56951 30.493H0L0 31.5607H3.00993L30.6316 3.97937L3.32317 -23.2915L3.32317 -50.339L0 -53.6573L0 -52.1522ZM0 1.94418L1.50261 3.44458H0L0 4.51224H4.07683L0 0.439087L0 1.94418ZM1.96972 302.045H2.57029L24.8881 324.329C25.5805 324.548 26.28 324.745 26.9889 324.922L3.01071 300.982H1.60938C1.72007 301.339 1.84725 301.692 1.96972 302.045ZM33.2948 325.903L57.1882 302.045H84.2753L110.609 275.75V301.292L85.8744 325.99H87.3818L111.141 302.266L134.9 325.99H136.41L111.897 301.513L111.676 301.292V273.179L83.8325 300.982H56.7431L31.8982 325.79C32.3598 325.84 32.8262 325.875 33.2948 325.903ZM83.517 -131.043V-103.996L111.139 -76.4144L111.895 -77.1646L84.5839 -104.435V-131.483L57.7183 -158.314L84.5839 -185.14V-212.188L111.139 -238.704L138.007 -211.878H165.096L191.651 -185.362L192.402 -184.607L193.158 -185.362L219.713 -211.878H247.113V-212.94H219.272L192.402 -186.114L165.536 -212.94H138.447L111.895 -239.459H111.89L111.139 -240.207L110.39 -239.459H110.387L83.517 -212.63V-185.58L56.2109 -158.314L83.517 -131.043ZM219.278 -293.019H246.365L273.676 -265.75L274.429 -266.503L300.982 -293.019H328.071L354.939 -319.85L381.494 -293.329V-266.282L408.362 -239.455H409.867L382.561 -266.724V-293.774L355.69 -320.6L382.561 -347.429V-374.479L410.401 -402.279H382.248L382.026 -402.5L354.939 -429.547L354.183 -428.794L327.628 -402.279H300.23V-401.211H327.628L354.407 -374.479V-348.934L328.071 -375.229H300.982L274.429 -401.745L300.982 -428.261H328.071L354.939 -455.092L381.805 -428.261H408.892L435.449 -401.745L408.583 -374.918V-347.868L382.026 -321.352L381.273 -320.6L382.026 -319.85L408.583 -293.329V-265.971H409.648V-293.774L382.78 -320.6L409.648 -347.429V-374.479L436.203 -400.995L462.757 -374.479V-347.429L489.091 -321.134H463.511L436.737 -347.868V-375.229H435.67V-347.868L408.362 -320.6L435.449 -293.552L435.67 -293.329V-266.282L462.538 -239.455H464.043L436.737 -266.724V-292.266L463.068 -265.971H490.158L512 -244.161V-245.666L490.6 -267.036H463.511L436.737 -293.774L409.867 -320.6L436.203 -346.897L463.068 -320.068H490.158L490.379 -319.85L512 -298.258V-299.766L491.133 -320.6L490.6 -321.134L463.824 -347.868V-374.918L436.956 -401.745L463.824 -428.573V-455.623L490.379 -482.139L491.133 -482.889L494.993 -486.746C494.68 -486.939 494.362 -487.123 494.044 -487.304L490.379 -483.644L489.625 -482.889L462.757 -456.063V-429.016L436.203 -402.5L409.332 -429.326H382.248L354.939 -456.597L327.628 -429.326H300.541L272.92 -401.745L246.054 -374.918L246.054 -347.868L218.209 -320.068H246.365L273.676 -292.8L300.982 -320.068H328.382V-321.134H300.982L274.208 -347.868V-373.413L300.541 -347.116H327.628L354.183 -320.6L327.628 -294.084H300.541L273.676 -267.255L246.805 -294.084H219.718L193.164 -320.6L220.032 -347.429L220.032 -374.479L247.34 -401.745L273.676 -428.042L274.208 -428.573L300.982 -455.31H328.071L354.939 -482.139L381.805 -455.31H408.892L436.737 -427.508V-455.623L436.956 -455.842L463.29 -482.139L464.043 -482.889L473.177 -492.01H471.667L463.29 -483.644L462.538 -482.889L436.203 -456.597L409.867 -482.889L409.332 -483.423L400.738 -492.01H399.231L407.83 -483.423H382.248L373.653 -492.01H372.144L381.805 -482.36H408.892L409.113 -482.139L435.67 -455.623V-430.081L409.332 -456.376H382.248L354.939 -483.644L354.183 -482.889L327.628 -456.376H300.541L274.208 -430.081V-455.623L300.982 -482.36H328.071L337.732 -492.01H336.225L327.628 -483.423H300.541L273.141 -456.063V-429.016L245.83 -401.745H245.833L218.965 -374.918L218.965 -347.868L191.656 -320.6L219.278 -293.019ZM246.359 -321.133H220.781L247.112 -347.428L247.112 -374.478L273.669 -400.994L300.535 -374.165H327.622L355.465 -346.362V-374.478L382.241 -401.21H407.823L381.488 -374.917V-347.867L354.933 -321.352L328.065 -348.18H300.975L273.135 -375.983V-347.867L246.359 -321.133ZM273.672 -294.302L247.336 -320.599L273.672 -346.897L300.003 -320.599L273.672 -294.302ZM354.935 -375.452L328.602 -401.745L354.935 -428.042L381.268 -401.745L354.935 -375.452ZM277.001 325.99L300.982 302.045H328.071L354.407 275.75V301.292L329.673 325.99H331.18L354.939 302.266L378.698 325.99H380.205L355.471 301.292V273.179L327.628 300.982H300.541L275.496 325.99H277.001ZM435.441 -482.889L436.195 -482.138L436.949 -482.889L446.08 -492.008H444.57L436.195 -483.643L427.82 -492.008H426.313L435.441 -482.889ZM463.069 -293.019H490.158L512 -271.211V-272.714L490.601 -294.084H463.511L436.203 -321.352L435.449 -320.6L463.069 -293.019ZM463.069 -130.733L490.158 -130.733L512 -108.921V-110.428L490.601 -131.796L463.511 -131.796L436.203 -159.067L435.449 -158.315L463.069 -130.733ZM463.069 274.998H490.158L511.498 296.307C511.571 295.872 511.633 295.434 511.691 294.995L490.601 273.932H463.511L436.203 246.664L435.449 247.414L463.069 274.998ZM463.286 -400.995L489.841 -374.479V-347.429L511.996 -325.309V-326.814L490.91 -347.869V-374.919L464.04 -401.745L490.91 -428.574V-455.624L508.028 -472.714C507.856 -473.048 507.684 -473.375 507.503 -473.699L489.841 -456.064V-429.016L463.286 -402.5L462.535 -401.745L463.286 -400.995ZM463.286 167.024L489.841 193.54V220.587L511.996 242.71V241.203L490.91 220.147V193.098L464.04 166.269L490.91 139.442V112.395L511.996 91.335V89.8322L489.841 111.953V139.003L463.286 165.519L462.535 166.269L463.286 167.024ZM490.379 -400.994L511.999 -379.405V-380.91L491.132 -401.744L511.999 -422.58V-424.088L490.379 -402.499L489.625 -401.744L490.379 -400.994ZM511.999 -217.115V-218.622L491.132 -239.458H489.625L511.999 -217.115ZM490.379 167.024L511.999 188.613V187.106L491.132 166.269L511.999 145.435V143.93L490.379 165.519L489.625 166.269L490.379 167.024Z" fill="url(#paint0_linear_122_16904)"/>
<defs>
<linearGradient id="paint0_linear_122_16904" x1="256" y1="-0.999982" x2="256" y2="133" gradientUnits="userSpaceOnUse">
<stop stop-color="#DCB567" stop-opacity="0.3"/>
<stop offset="1" stop-color="#6E6E7D" stop-opacity="0.1"/>
</linearGradient>
</defs>
</svg>
