<?xml version="1.0" encoding="UTF-8"?>
<svg xmlns="http://www.w3.org/2000/svg" xmlns:xlink="http://www.w3.org/1999/xlink" width="512px" height="512px" viewBox="0 0 512 512" version="1.1">
<g id="surface1">
<path style=" stroke:none;fill-rule:nonzero;fill:rgb(95.294118%,95.686275%,96.078431%);fill-opacity:1;" d="M 5.683594 293.894531 C 10.878906 328.171875 22.972656 360.171875 40.472656 388.480469 L 470.960938 388.480469 C 488.460938 360.171875 500.554688 328.171875 505.746094 293.894531 Z M 5.683594 293.894531 "/>
<path style=" stroke:none;fill-rule:nonzero;fill:rgb(95.294118%,95.686275%,96.078431%);fill-opacity:1;" d="M 394.179688 467.300781 L 117.246094 467.300781 C 157.03125 493.386719 204.582031 508.613281 255.714844 508.613281 C 306.84375 508.613281 354.394531 493.386719 394.179688 467.300781 Z M 394.179688 467.300781 "/>
<path style=" stroke:none;fill-rule:nonzero;fill:rgb(86.27451%,18.823529%,15.294118%);fill-opacity:1;" d="M 40.472656 388.480469 C 59.984375 420.046875 86.253906 446.972656 117.246094 467.300781 L 394.179688 467.300781 C 425.179688 446.972656 451.441406 420.046875 470.953125 388.480469 Z M 40.472656 388.480469 "/>
<path style=" stroke:none;fill-rule:nonzero;fill:rgb(15.686275%,22.352941%,56.862745%);fill-opacity:1;" d="M 281.726562 4.140625 C 273.175781 3.261719 264.496094 2.8125 255.714844 2.8125 C 116.039062 2.8125 2.8125 116.039062 2.8125 255.714844 C 2.8125 268.691406 3.796875 281.441406 5.683594 293.894531 L 281.726562 293.894531 Z M 281.726562 4.140625 "/>
<path style=" stroke:none;fill-rule:nonzero;fill:rgb(95.294118%,95.686275%,96.078431%);fill-opacity:1;" d="M 79.738281 132.601562 L 71.917969 108.582031 L 92.289062 93.773438 L 67.09375 93.773438 L 65.558594 89.070312 C 57.570312 98.179688 50.230469 107.863281 43.597656 118.058594 L 38.859375 132.601562 L 59.292969 117.746094 Z M 79.738281 132.601562 "/>
<path style=" stroke:none;fill-rule:nonzero;fill:rgb(95.294118%,95.686275%,96.078431%);fill-opacity:1;" d="M 130.628906 57.089844 L 150.972656 71.878906 L 143.171875 47.925781 L 163.523438 33.054688 L 138.328125 33.054688 L 137.957031 31.90625 C 130.011719 36.101562 122.292969 40.664062 114.875 45.644531 L 118.066406 47.964844 L 110.390625 71.878906 Z M 130.628906 57.089844 "/>
<path style=" stroke:none;fill-rule:nonzero;fill:rgb(95.294118%,95.686275%,96.078431%);fill-opacity:1;" d="M 46.707031 230.03125 L 38.894531 254.027344 L 59.292969 239.191406 L 79.75 254.027344 L 71.9375 230.03125 L 92.285156 215.191406 L 67.105469 215.191406 L 59.292969 191.25 L 51.480469 215.191406 L 26.304688 215.191406 Z M 46.707031 230.03125 "/>
<path style=" stroke:none;fill-rule:nonzero;fill:rgb(95.294118%,95.686275%,96.078431%);fill-opacity:1;" d="M 189.453125 230.03125 L 181.640625 254.027344 L 202.042969 239.191406 L 222.5 254.027344 L 214.6875 230.03125 L 235.03125 215.191406 L 209.855469 215.191406 L 202.042969 191.25 L 194.285156 215.191406 L 169.054688 215.191406 Z M 189.453125 230.03125 "/>
<path style=" stroke:none;fill-rule:nonzero;fill:rgb(95.294118%,95.686275%,96.078431%);fill-opacity:1;" d="M 189.453125 108.582031 L 181.640625 132.578125 L 202.042969 117.742188 L 222.5 132.578125 L 214.6875 108.582031 L 235.03125 93.746094 L 209.855469 93.746094 L 202.042969 69.859375 L 194.285156 93.746094 L 169.054688 93.746094 Z M 189.453125 108.582031 "/>
<path style=" stroke:none;fill-rule:nonzero;fill:rgb(95.294118%,95.686275%,96.078431%);fill-opacity:1;" d="M 117.910156 169.277344 L 110.097656 193.332031 L 130.554688 178.496094 L 150.957031 193.332031 L 143.144531 169.277344 L 163.546875 154.496094 L 138.3125 154.496094 L 130.554688 130.554688 L 122.742188 154.496094 L 97.566406 154.496094 Z M 117.910156 169.277344 "/>
<path style=" stroke:none;fill-rule:nonzero;fill:rgb(86.27451%,18.823529%,15.294118%);fill-opacity:1;" d="M 505.320312 215.070312 L 281.726562 215.070312 L 281.726562 293.890625 L 505.742188 293.890625 C 507.628906 281.441406 508.613281 268.691406 508.613281 255.714844 C 508.613281 241.871094 507.457031 228.308594 505.320312 215.070312 Z M 505.320312 215.070312 "/>
<path style=" stroke:none;fill-rule:nonzero;fill:rgb(95.294118%,95.686275%,96.078431%);fill-opacity:1;" d="M 281.726562 215.070312 L 505.320312 215.070312 C 499.765625 180.726562 487.285156 148.71875 469.378906 120.484375 L 281.726562 120.484375 Z M 281.726562 215.070312 "/>
<path style=" stroke:none;fill-rule:nonzero;fill:rgb(86.27451%,18.823529%,15.294118%);fill-opacity:1;" d="M 281.726562 120.484375 L 469.375 120.484375 C 449.214844 88.699219 422.183594 61.734375 390.335938 41.664062 L 281.726562 41.664062 Z M 281.726562 120.484375 "/>
<path style=" stroke:none;fill-rule:nonzero;fill:rgb(95.294118%,95.686275%,96.078431%);fill-opacity:1;" d="M 281.726562 4.160156 L 281.726562 41.664062 L 390.339844 41.664062 C 358.265625 21.449219 321.359375 8.226562 281.726562 4.160156 Z M 281.726562 4.160156 "/>
</g>
</svg>
